<svg xmlns="http://www.w3.org/2000/svg" width="48" height="48" viewBox="0 0 48 48">
    <g fill="none" fill-rule="evenodd">
        <circle cx="24" cy="24" r="24" fill="#136A8A"/>
        <g fill="#FFF" fill-rule="nonzero" stroke="#FFF" stroke-width=".1">
            <path d="M24.525 17.236a3.057 3.057 0 0 0-3.051 3.055 3.057 3.057 0 0 0 3.05 3.054 3.057 3.057 0 0 0 3.052-3.054 3.057 3.057 0 0 0-3.051-3.055zm0 5.237a2.183 2.183 0 0 1-2.18-2.182c0-1.203.978-2.182 2.18-2.182a2.183 2.183 0 0 1 0 4.364z"/>
            <path d="M30.358 14.451A8.3 8.3 0 0 0 24.448 12a8.3 8.3 0 0 0-5.911 2.451c-2.922 2.925-3.285 8.427-.786 11.76l6.697 9.683 6.687-9.669c2.508-3.347 2.145-8.85-.777-11.774zm.07 11.264l-5.98 8.646-5.99-8.66c-2.266-3.024-1.941-7.993.696-10.633a7.434 7.434 0 0 1 5.294-2.195c2 0 3.88.78 5.294 2.195 2.637 2.64 2.962 7.609.686 10.647z"/>
        </g>
    </g>
</svg>
