<svg xmlns="http://www.w3.org/2000/svg" width="40" height="40" viewBox="0 0 40 40">
    <g fill="none" fill-rule="evenodd">
        <rect width="40" height="40" fill="#FFF" rx="20"/>
        <path fill="#98A6BA" fill-rule="nonzero" stroke="#98A6BA" stroke-width=".5" d="M16 8h8.8a2.003 2.003 0 0 1 1.994 1.85l.006.15v20a2.003 2.003 0 0 1-1.85 1.994L24.8 32H16a2.003 2.003 0 0 1-1.994-1.85L14 30V10a2.003 2.003 0 0 1 1.85-1.994L16 8h8.8zm2.81 20.8H14.8V30a1.2 1.2 0 0 0 1.077 1.194L16 31.2h2.81a1.96 1.96 0 0 1 0-2.4zm1.59 0a1.2 1.2 0 1 0 0 2.4 1.2 1.2 0 0 0 0-2.4zm5.6 0h-4.01a1.96 1.96 0 0 1 .096 2.264l-.096.136h2.81a1.2 1.2 0 0 0 1.194-1.077L26 30v-1.2zm0-16.4H14.8V28H26V12.4zm-1.2-3.6H16a1.2 1.2 0 0 0-1.194 1.077L14.8 10v1.6H26V10a1.2 1.2 0 0 0-1.2-1.2zM21.6 10v.8h-4V10h4zm1.6 0v.8h-.8V10h.8z"/>
    </g>
</svg>
