<svg xmlns="http://www.w3.org/2000/svg" width="18" height="23" viewBox="0 0 18 23">
    <path fill="#FFF" fill-rule="nonzero" d="M6.574 20.1H2.965C1.333 20.1.02 18.752.02 17.104c0-.906.401-1.766 1.095-2.34l.386-.32a2.924 2.924 0 0 0 1.048-2.253v-2.096c0-3.223 2.264-5.913 5.265-6.486a2 2 0 1 1 2.377-.003c3.007.567 5.28 3.261 5.28 6.489v2.135c0 .861.372 1.677 1.012 2.224l.376.321a3.037 3.037 0 0 1 1.057 2.309v.02c0 1.648-1.313 2.994-2.945 2.994h-3.608c.019.126.029.255.029.386 0 1.372-1.085 2.485-2.424 2.485-1.338 0-2.423-1.113-2.423-2.485 0-.131.01-.26.029-.386zm1.714-2a2.37 2.37 0 0 1 1.36 0h5.323c.516 0 .945-.44.945-.995v-.02c0-.307-.132-.596-.357-.789l-.376-.32a4.926 4.926 0 0 1-1.713-3.745v-2.135c0-2.545-2.003-4.599-4.46-4.599-2.458 0-4.461 2.054-4.461 4.599v2.096c0 1.472-.65 2.867-1.774 3.795l-.385.32c-.233.191-.37.485-.37.798 0 .555.429.994.945.994h5.323z"/>
</svg>
