<svg xmlns="http://www.w3.org/2000/svg" width="40" height="40" viewBox="0 0 40 40">
    <g fill="none" fill-rule="evenodd">
        <circle cx="20" cy="20" r="20" fill="#FFF"/>
        <path fill="#98A6BA" fill-rule="nonzero" d="M15.308 19.125a3.135 3.135 0 0 0 3.136-3.137 3.135 3.135 0 0 0-3.136-3.136 3.135 3.135 0 0 0-3.136 3.136 3.135 3.135 0 0 0 3.136 3.137zm0 1.727a4.862 4.862 0 0 1-4.864-4.864 4.862 4.862 0 0 1 4.864-4.863 4.862 4.862 0 0 1 4.864 4.863 4.862 4.862 0 0 1-4.864 4.864zm0 2.817a5.542 5.542 0 0 1-2.998-.9c-1.874.613-2.933 1.968-3.111 3.972.334.043.79.083 1.348.116 1.259.075 2.975.115 4.76.113 1.792 0 3.506-.044 4.76-.122.56-.035 1.017-.076 1.35-.12-.177-1.992-1.238-3.346-3.112-3.959-.904.583-1.95.9-2.997.9zm3.113-2.663l.076.018c3 .833 4.675 3.129 4.675 6.32 0 1.245-1.678 1.349-7.863 1.354-6.206.005-7.865-.094-7.865-1.332 0-3.21 1.672-5.508 4.751-6.36l.459-.084.289.19.13.086a3.857 3.857 0 0 0 2.235.744c.778 0 1.568-.262 2.267-.765l.387-.255.459.084zm7.387.395c-2.215 0-3.993-1.856-3.993-4.131 0-2.275 1.778-4.132 3.993-4.132s3.993 1.857 3.993 4.132c0 2.275-1.778 4.131-3.993 4.131zm0-1.7c1.26 0 2.293-1.08 2.293-2.431 0-1.352-1.034-2.432-2.293-2.432-1.259 0-2.293 1.08-2.293 2.432 0 1.352 1.034 2.431 2.293 2.431zm-2.38 3.297c-.484.193-.858.056-1.12-.41-.393-.697.462-1.165.65-1.23a5.12 5.12 0 0 1 .367-.11l.44-.083.293.2.108.075a2.756 2.756 0 0 0 1.642.573c.568 0 1.149-.202 1.673-.595l.37-.253.347.066.17.036c2.434.706 3.79 2.647 3.79 5.32 0 1.185-1.308 1.265-6.647 1.25-.5-.093-.748-.376-.747-.85.001-.472.252-.755.752-.85 1.45.005 2.867-.028 3.91-.092.4-.024.737-.053 1-.084-.165-1.5-.939-2.513-2.23-2.97a4.417 4.417 0 0 1-2.388.722c-.84 0-1.675-.258-2.38-.715z"/>
    </g>
</svg>
