<svg xmlns="http://www.w3.org/2000/svg" width="40" height="40" viewBox="0 0 40 40">
    <g fill="none" fill-rule="evenodd">
        <circle cx="20" cy="20" r="20" fill="#FFF"/>
        <path fill="#98A6BA" d="M17 15.25v-1.5c0-.414.224-.75.5-.75h11c.276 0 .5.336.5.75v1.5c0 .414-.224.75-.5.75h-11c-.276 0-.5-.336-.5-.75zm0 6v-1.5c0-.414.224-.75.5-.75h11c.276 0 .5.336.5.75v1.5c0 .414-.224.75-.5.75h-11c-.276 0-.5-.336-.5-.75zm0 6v-1.5c0-.414.224-.75.5-.75h11c.276 0 .5.336.5.75v1.5c0 .414-.224.75-.5.75h-11c-.276 0-.5-.336-.5-.75zm-6-12v-1.5c0-.414.224-.75.5-.75h3c.276 0 .5.336.5.75v1.5c0 .414-.224.75-.5.75h-3c-.276 0-.5-.336-.5-.75zm0 6v-1.5c0-.414.224-.75.5-.75h3c.276 0 .5.336.5.75v1.5c0 .414-.224.75-.5.75h-3c-.276 0-.5-.336-.5-.75zm0 6v-1.5c0-.414.224-.75.5-.75h3c.276 0 .5.336.5.75v1.5c0 .414-.224.75-.5.75h-3c-.276 0-.5-.336-.5-.75z"/>
    </g>
</svg>
