<svg xmlns="http://www.w3.org/2000/svg" width="27" height="26" viewBox="0 0 27 26">
    <path fill="#FFF" fill-rule="nonzero" d="M19.337 11.23V4.713c0-.958-.808-1.745-1.817-1.745H16.3a.93.93 0 1 1 0-1.857h1.221c2.027 0 3.68 1.608 3.68 3.602v6.464a7.558 7.558 0 0 0-1.863.053zm-5.352 10.975H3.935c-2.027 0-3.68-1.607-3.68-3.602V4.713c0-1.994 1.653-3.602 3.68-3.602h1.221a.93.93 0 1 1 0 1.857H3.934c-1.008 0-1.816.787-1.816 1.746v13.89c0 .958.808 1.744 1.816 1.744h9.315c.162.658.411 1.281.736 1.857zm-2.66-21.094a.93.93 0 1 1 0 1.857H9.693a.93.93 0 1 1 0-1.857h1.634zm-.262 16.155H5.186a1.105 1.105 0 0 1-1.114-1.096c0-.608.501-1.096 1.114-1.096h5.877c.613 0 1.114.488 1.114 1.096 0 .607-.501 1.096-1.114 1.096zm-5.877-4.067a1.105 1.105 0 0 1-1.114-1.096c0-.608.501-1.096 1.114-1.096h5.877c.613 0 1.114.488 1.114 1.096 0 .608-.501 1.096-1.114 1.096H5.186zM16.27 8.854H5.186a1.105 1.105 0 0 1-1.114-1.096c0-.608.501-1.095 1.114-1.095H16.27c.612 0 1.114.487 1.114 1.095s-.501 1.096-1.114 1.096zm-8.77-4.4a.829.829 0 0 1-.84-.818V.89c0-.452.377-.817.84-.817.464 0 .84.365.84.817v2.747a.829.829 0 0 1-.84.817zm7.297-.818a.829.829 0 0 1-.84.817.828.828 0 0 1-.839-.817V.89c0-.452.375-.817.84-.817.463 0 .839.365.839.817v2.747zm5.687 8.435c3.599 0 6.517 2.911 6.517 6.5 0 3.59-2.918 6.5-6.517 6.5-3.6 0-6.517-2.91-6.517-6.5s2.917-6.5 6.517-6.5zm0 1.858a4.65 4.65 0 0 0-4.655 4.643 4.649 4.649 0 0 0 4.655 4.642 4.65 4.65 0 0 0 4.655-4.642 4.65 4.65 0 0 0-4.655-4.643zm2.172 5.571h-2.483a.621.621 0 0 1-.232-.045l-.01-.004a.651.651 0 0 1-.09-.049c-.005-.002-.01-.004-.015-.008-.02-.013-.039-.03-.058-.048-.01-.009-.024-.017-.034-.027-.01-.01-.018-.024-.028-.034-.016-.02-.033-.037-.047-.058-.004-.004-.005-.01-.008-.015a.575.575 0 0 1-.05-.09l-.003-.01a.62.62 0 0 1-.045-.23v-2.477a.62.62 0 0 1 1.24 0v1.857h1.863a.62.62 0 1 1 0 1.238z"/>
</svg>
