<svg xmlns="http://www.w3.org/2000/svg" xmlns:xlink="http://www.w3.org/1999/xlink" width="40" height="40" viewBox="0 0 40 40">
    <defs>
        <path id="a" d="M26.75 28.375V14.312a.563.563 0 0 0-.563-.562h-.562a2.25 2.25 0 0 1-2.25 2.25h-6.75a2.25 2.25 0 0 1-2.25-2.25h-.563a.563.563 0 0 0-.562.563v14.062c0 .621.504 1.125 1.125 1.125h11.25c.621 0 1.125-.504 1.125-1.125zM22.25 11.5h-4.5a1.125 1.125 0 0 0 0 2.25h4.5a1.125 1.125 0 0 0 0-2.25zm3.375 0h1.125A2.25 2.25 0 0 1 29 13.75V29.5a2.25 2.25 0 0 1-2.25 2.25h-13.5A2.25 2.25 0 0 1 11 29.5V13.75a2.25 2.25 0 0 1 2.25-2.25h1.125a2.25 2.25 0 0 1 2.25-2.25h6.75a2.25 2.25 0 0 1 2.25 2.25zM20 28.55c-3.107 0-5.625-2.574-5.625-5.75s2.518-5.75 5.625-5.75 5.625 2.574 5.625 5.75a5.815 5.815 0 0 1-1.648 4.066A5.564 5.564 0 0 1 20 28.55zm2.551-4.407l-1.316-1.346 1.316-1.345a.871.871 0 0 0 .262-.63.871.871 0 0 0-.262-.63.834.834 0 0 0-.616-.267.834.834 0 0 0-.616.267l-1.316 1.345-1.316-1.345a.834.834 0 0 0-.617-.267.834.834 0 0 0-.616.267.897.897 0 0 0-.266.635.859.859 0 0 0 .256.636l1.316 1.345-1.306 1.335a.871.871 0 0 0-.261.63c0 .242.087.452.261.63a.828.828 0 0 0 .621.272.848.848 0 0 0 .612-.272l1.305-1.335 1.316 1.345a.822.822 0 0 0 .622.262.859.859 0 0 0 .621-.272.871.871 0 0 0 .262-.63.871.871 0 0 0-.262-.63z"/>
    </defs>
    <g fill="none" fill-rule="evenodd">
        <circle cx="20" cy="20" r="20" fill="#136A8A"/>
        <use fill="#FFF" xlink:href="#a"/>
    </g>
</svg>
