<svg xmlns="http://www.w3.org/2000/svg" width="31" height="22" viewBox="0 0 31 22">
    <g fill="none" fill-rule="evenodd">
        <path fill="#136A8A" fill-rule="nonzero" d="M26.947 11.294V5.425H25.46a.759.759 0 1 1 0-1.517h2.245c.42 0 .759.34.759.758v6.81c1.069.503 2.053 2 2.053 3.865 0 2.501-1.71 4.025-3.749 4.025h-3.187v1.794a.88.88 0 0 1-1.494.63l-4.12-4.008a.88.88 0 0 1-.017-1.244l.018-.019 4.12-3.995a.88.88 0 0 1 1.493.632v2.224h3.153a.212.212 0 0 0 .213-.213v-3.873zM3.57 10.745v5.87h1.487a.759.759 0 0 1 0 1.517H2.812a.759.759 0 0 1-.759-.759v-6.81C.984 10.06 0 8.564 0 6.7c0-2.502 1.711-4.025 3.75-4.025h3.186V.88A.88.88 0 0 1 8.43.25l4.12 4.008a.88.88 0 0 1 .017 1.244l-.018.018-4.12 3.995a.88.88 0 0 1-1.493-.631V6.66H3.783a.212.212 0 0 0-.212.213v3.872zm12.034 5.87a.759.759 0 0 1 0 1.517h-2.507a.759.759 0 1 1 0-1.517h2.507zm-4.975 0a.759.759 0 0 1 0 1.517H7.914a.759.759 0 1 1 0-1.517h2.716zm4.282-11.19a.759.759 0 0 1 0-1.517h2.508a.759.759 0 0 1 0 1.517h-2.508zm4.976 0a.759.759 0 0 1 0-1.517h2.716a.759.759 0 0 1 0 1.517h-2.716zm-4.13 8.595a3 3 0 1 1 0-6 3 3 0 0 1 0 6z"/>
    </g>
</svg>
