<svg xmlns="http://www.w3.org/2000/svg" width="38" height="21" viewBox="0 0 38 21">
    <path fill="#FFF" fill-rule="nonzero" d="M5.816 12.381c3.21 0 5.817 1.211 5.817 2.708 0 1.498-2.606 2.709-5.817 2.709-3.21 0-5.816-1.211-5.816-2.709 0-1.497 2.606-2.708 5.816-2.708zm0 3.87c2.447 0 3.92-.775 4.23-1.162-.31-.386-1.783-1.16-4.23-1.16-2.446 0-3.92.774-4.23 1.16.31.387 1.784 1.161 4.23 1.161zm.54 3.094c2.175-.092 4.005-.642 5.222-1.508.034.113.052.23.055.348 0 1.497-2.606 2.708-5.817 2.708-3.21 0-5.816-1.21-5.816-2.708.002-.118.02-.235.054-.348 1.218.866 3.048 1.416 5.223 1.508h1.078zm13.183 0c2.175-.092 4.005-.642 5.223-1.497.034.113.052.23.054.348 0 1.498-2.605 2.709-5.816 2.709-3.21 0-5.816-1.211-5.816-2.709.002-.118.02-.235.054-.348 1.218.87 3.052 1.42 5.223 1.497h1.078zm0-3.095c2.175-.093 4.005-.642 5.223-1.497.034.113.052.23.054.348 0 1.497-2.605 2.708-5.816 2.708-3.21 0-5.816-1.21-5.816-2.708.002-.118.02-.235.054-.348 1.218.87 3.052 1.42 5.223 1.497h1.078zm0-3.095c2.175-.093 4.005-.642 5.223-1.509.034.113.052.23.054.348 0 1.498-2.605 2.709-5.816 2.709-3.21 0-5.816-1.211-5.816-2.709.003-.114.021-.227.054-.336 1.218.87 3.052 1.42 5.223 1.497h1.078zM19 6.19c3.21 0 5.816 1.21 5.816 2.708 0 1.497-2.605 2.708-5.816 2.708-3.21 0-5.816-1.21-5.816-2.708 0-1.497 2.605-2.708 5.816-2.708zm0 3.869c2.447 0 3.92-.774 4.23-1.161-.31-.387-1.783-1.16-4.23-1.16-2.447 0-3.92.773-4.23 1.16.31.387 1.783 1.16 4.23 1.16zm13.723 9.285c2.175-.092 4.005-.642 5.223-1.497.034.113.052.23.054.348 0 1.498-2.606 2.709-5.816 2.709s-5.817-1.211-5.817-2.709c.003-.118.02-.235.055-.348 1.217.87 3.051 1.42 5.223 1.497h1.078zm0-3.095c2.175-.093 4.005-.642 5.223-1.497.034.113.052.23.054.348 0 1.497-2.606 2.708-5.816 2.708s-5.817-1.21-5.817-2.708c.003-.118.02-.235.055-.348 1.217.87 3.051 1.42 5.223 1.497h1.078zm0-3.095c2.175-.093 4.005-.642 5.223-1.509.034.113.052.23.054.348 0 1.498-2.606 2.709-5.816 2.709s-5.817-1.211-5.817-2.709c.004-.114.022-.227.055-.336 1.217.87 3.051 1.42 5.223 1.497h1.078zm0-3.095c2.175-.093 4.005-.643 5.223-1.51.034.114.052.23.054.349 0 1.497-2.606 2.708-5.816 2.708s-5.817-1.21-5.817-2.708c.004-.114.022-.227.055-.337 1.217.87 3.051 1.42 5.223 1.498h1.078zm0-3.096c2.175-.092 4.005-.642 5.223-1.509.034.114.052.23.054.349 0 1.497-2.606 2.708-5.816 2.708s-5.817-1.211-5.817-2.708c.004-.114.022-.228.055-.337 1.217.87 3.051 1.42 5.223 1.497h1.078zM32.183 0C35.395 0 38 1.211 38 2.708c0 1.498-2.606 2.709-5.816 2.709s-5.817-1.211-5.817-2.709C26.367 1.211 28.973 0 32.184 0zm0 3.87c2.447 0 3.92-.775 4.231-1.162-.31-.387-1.784-1.16-4.23-1.16-2.447 0-3.92.773-4.23 1.16.31.387 1.783 1.161 4.23 1.161z"/>
</svg>
