<svg xmlns="http://www.w3.org/2000/svg" width="40" height="40" viewBox="0 0 40 40">
    <g fill="none" fill-rule="evenodd">
        <circle cx="20" cy="20" r="20" fill="#FFF"/>
        <path fill="#98A6BA" d="M13.052 21.933L11.485 23.5l4 4h7.03l.25-.25c.062-.003.104-.014.127-.034l1.774-1.618H29V27.5a2 2 0 0 1-2 2H11a2 2 0 0 1-2-2v-8a2 2 0 0 1 2-2h2v3.73c0 .221.018.458.052.703zM27 25.843c0 1.627-.38 1.657-1.657 1.657L27 25.843zM12.657 27.5C11.03 27.5 11 27.12 11 25.843l1.657 1.657zM11 21.157c0-1.629.384-1.657 1.657-1.657L11 21.157zM23.333 24L19.6 26.8a1 1 0 0 1-1.586-.964L18.319 24H17.5a3.003 3.003 0 0 1-3-3v-8a3.003 3.003 0 0 1 3-3h11a3.003 3.003 0 0 1 3 3v8a3.003 3.003 0 0 1-3 3h-5.167zm-2.936-.298L22.4 22.2a1 1 0 0 1 .6-.2h5.5a1 1 0 0 0 1-1v-8a1 1 0 0 0-1-1h-11a1 1 0 0 0-1 1v8a1 1 0 0 0 1 1h2a1 1 0 0 1 .986 1.164l-.089.538zm-1.882-4.545l6.364-6.364a1 1 0 1 1 1.414 1.414l-6.364 6.364a1 1 0 0 1-1.414-1.414zm.985-3.071a1.5 1.5 0 1 1 0-3 1.5 1.5 0 0 1 0 3zm4.5 2.5a1.5 1.5 0 1 1 3 0 1.5 1.5 0 0 1-3 0z"/>
    </g>
</svg>
