<svg xmlns="http://www.w3.org/2000/svg" width="40" height="40" viewBox="0 0 40 40">
    <g fill="none" fill-rule="evenodd">
        <circle cx="20" cy="20" r="20" fill="#136A8A"/>
        <path fill="#FFF" d="M14.052 21.433L12.485 23l4 4h7.03l.25-.25c.062-.003.104-.014.127-.034l1.774-1.618H30V27a2 2 0 0 1-2 2H12a2 2 0 0 1-2-2v-8a2 2 0 0 1 2-2h2v3.73c0 .221.018.458.052.703zM28 25.343C28 26.97 27.62 27 26.343 27L28 25.343zM13.657 27C12.03 27 12 26.62 12 25.343L13.657 27zM12 20.657c0-1.629.384-1.657 1.657-1.657L12 20.657zM24.333 23.5L20.6 26.3a1 1 0 0 1-1.586-.964l.305-1.836H18.5a3.003 3.003 0 0 1-3-3v-8a3.003 3.003 0 0 1 3-3h11a3.003 3.003 0 0 1 3 3v8a3.003 3.003 0 0 1-3 3h-5.167zm-2.936-.298L23.4 21.7a1 1 0 0 1 .6-.2h5.5a1 1 0 0 0 1-1v-8a1 1 0 0 0-1-1h-11a1 1 0 0 0-1 1v8a1 1 0 0 0 1 1h2a1 1 0 0 1 .986 1.164l-.089.538zm-1.882-4.545l6.364-6.364a1 1 0 1 1 1.414 1.414l-6.364 6.364a1 1 0 0 1-1.414-1.414zm.985-3.071a1.5 1.5 0 1 1 0-3 1.5 1.5 0 0 1 0 3zm4.5 2.5a1.5 1.5 0 1 1 3 0 1.5 1.5 0 0 1-3 0z"/>
    </g>
</svg>
