<svg xmlns="http://www.w3.org/2000/svg" width="40" height="40" viewBox="0 0 40 40">
    <g fill="none" fill-rule="evenodd">
        <circle cx="20" cy="20" r="20" fill="#FFF"/>
        <path fill="#98A6BA" fill-rule="nonzero" d="M30 20.784c0 .01-.002.02-.003.029l.003.05v3.026c0 .62-.29 1.188-.763 1.562.583 1.865.612 3.63-.431 4.884-.724.87-1.852 1.296-3.326 1.296-.496 0-1.041-.05-1.636-.15-.4.33-.933.519-1.497.519-1.183 0-2.18-.824-2.18-1.887 0-1.064.997-1.888 2.18-1.888.951 0 1.783.536 2.067 1.31 1.458.213 2.39.03 2.807-.47.417-.5.44-1.483.196-2.53a2.762 2.762 0 0 1-2.231 1.127c-1.525 0-2.764-1.22-2.764-2.717v-5.14c0-1.497 1.239-2.716 2.764-2.716 1.175 0 2.187.73 2.58 1.769.055-.005.111-.008.167-.008l-.006-.514c0-4.042-3.338-7.328-7.44-7.328s-7.442 3.285-7.442 7.323v.519c.066 0 .128.002.19.008a2.754 2.754 0 0 1 2.58-1.769c1.525 0 2.764 1.219 2.764 2.717v5.139c0 1.498-1.24 2.717-2.764 2.717a2.754 2.754 0 0 1-2.58-1.77 2.063 2.063 0 0 1-.187.01c-1.13 0-2.048-.904-2.048-2.013V18.33C11 13.186 15.255 9 20.487 9c5.23 0 9.484 4.184 9.486 9.328L30 20.784zm-1.708-.773a.929.929 0 0 0-.707.01l-.68.29-.098-.72a1.634 1.634 0 0 0-1.621-1.407c-.907 0-1.646.728-1.646 1.622v5.139c0 .894.74 1.622 1.646 1.622.82 0 1.512-.605 1.621-1.408l.098-.72.68.29a.93.93 0 0 0 .162.052l.292.065.003.007.295-.133a.916.916 0 0 0 .545-.831v-3.002a4.963 4.963 0 0 1-.004-.098l.004-.03-.006-.52-.584-.228zm-4.894 10.051c-.036-.397-.48-.741-1.051-.741-.604 0-1.061.378-1.061.792 0 .413.457.792 1.06.792.365 0 .692-.144.888-.37l.187-.214-.023-.259zm-11.28-6.173a.926.926 0 0 0 1.297.841l.68-.29.098.72c.11.802.8 1.407 1.622 1.407.906 0 1.646-.728 1.646-1.622v-5.14c0-.893-.74-1.62-1.646-1.62-.821 0-1.513.604-1.622 1.406l-.098.72-.68-.29a.93.93 0 0 0-.716-.007l-.581.234v3.64zm2.978-4.083v5.139c0 .39.323.709.719.709a.715.715 0 0 0 .718-.71v-5.138a.715.715 0 0 0-.718-.709.715.715 0 0 0-.719.709zm-1.118 0c0-.995.823-1.804 1.837-1.804 1.013 0 1.836.81 1.836 1.804v5.139c0 .995-.823 1.804-1.836 1.804-1.014 0-1.837-.81-1.837-1.804v-5.14zm-.933 4.083c0 .002.003.004.003.004s.003-.002.003-.004v-3.027l-.006 3.027zm.003-4.127c.619 0 1.12.494 1.12 1.1v3.027c0 .606-.501 1.1-1.12 1.1a1.11 1.11 0 0 1-1.12-1.1v-3.027c0-.606.501-1.1 1.12-1.1zm9.299 10.23c-.109 0-.134-.017-.134.12 0 .138.025.121.134.121.108 0 .133.017.133-.12 0-.138-.025-.12-.133-.12zm0 1.095c-.655 0-1.251-.398-1.251-.974 0-.577.596-.975 1.25-.975.655 0 1.252.398 1.252.975 0 .576-.597.974-1.251.974zm3.557-6.142v-5.14a.715.715 0 0 0-.718-.708.715.715 0 0 0-.719.709v5.139c0 .39.324.709.719.709a.715.715 0 0 0 .718-.71zm1.118 0c0 .995-.823 1.804-1.836 1.804-1.014 0-1.836-.81-1.836-1.804v-5.14c0-.994.822-1.803 1.836-1.803 1.013 0 1.836.81 1.836 1.804v5.139zm.933-4.083c0-.002-.003-.004-.003-.004l-.003 3.03c0 .002.002.004-.01.004h.014l.002-3.03zm-1.123 3.027v-3.027c0-.606.501-1.1 1.12-1.1.619 0 1.12.494 1.12 1.1v3.027c0 .605-.5 1.098-1.124 1.1l-.017-.002a1.11 1.11 0 0 1-1.1-1.098z"/>
    </g>
</svg>
