<svg xmlns="http://www.w3.org/2000/svg" width="40" height="40" viewBox="0 0 40 40">
    <g fill="none" fill-rule="evenodd">
        <circle cx="20" cy="20" r="20" fill="#136A8A"/>
        <path fill="#FFF" fill-rule="nonzero" d="M27.638 11.491c.481 0 .87.39.871.87v15.277c0 .481-.39.87-.87.871H12.361a.871.871 0 0 1-.871-.871V12.362a.871.871 0 0 1 .871-.871h15.276zm-15.129 16h14.982V12.509H12.509v14.982zm.724-10.58h5.9v-3.678h-5.9v3.678zm6.918-4.696v5.714h-7.936v-5.714h7.936zm.724 1.018v8.94h5.892v-8.94h-5.892zm6.91-1.018V23.19h-7.928V12.215h7.928zM13.233 26.767h5.9v-8.114h-5.9v8.114zm6.918-9.132v10.15h-7.936v-10.15h7.936zm.724 9.132h5.892v-2.851h-5.892v2.851zm6.91-3.87v4.888h-7.928v-4.888h7.928z"/>
    </g>
</svg>
