<svg xmlns="http://www.w3.org/2000/svg" width="40" height="40" viewBox="0 0 40 40">
    <g fill="none" fill-rule="evenodd">
        <circle cx="20" cy="20" r="20" fill="#FFF"/>
        <path fill="#98A6BA" fill-rule="nonzero" d="M17.958 25.19a7.01 7.01 0 0 0 .264 1.714C12.223 27.027 9 26.827 9 25.575c0-3.264 1.653-5.603 4.712-6.474l.464-.087.292.197.129.088c.66.491 1.442.758 2.21.758.766 0 1.548-.267 2.24-.78l.39-.263.346.065.195.04c.266.076.523.165.769.265a7.056 7.056 0 0 0-1.736 1.898 5.319 5.319 0 0 1-2.205.488c-1.051 0-2.1-.33-2.979-.917-1.864.631-2.918 2.034-3.088 4.109l.123.015c.522.064 1.284.116 2.218.154 1.436.058 3.199.078 4.878.06zm-1.152-6.3c-2.674 0-4.828-2.218-4.828-4.945 0-2.727 2.154-4.945 4.828-4.945 2.674 0 4.828 2.218 4.828 4.945 0 2.727-2.154 4.945-4.828 4.945zm0-1.713c1.715 0 3.114-1.44 3.114-3.232 0-1.792-1.399-3.232-3.114-3.232-1.715 0-3.113 1.44-3.113 3.232 0 1.792 1.398 3.232 3.113 3.232zm8.75 6.17a1.736 1.736 0 0 1 .964 2.437l2.308 1.331a4.399 4.399 0 0 0-3.271-6.49v2.722zm-1.157 0v-2.722a4.399 4.399 0 0 0-3.282 6.472l2.309-1.332a1.736 1.736 0 0 1 .973-2.418zm-.084 3.242l-2.507 1.445a4.39 4.39 0 0 0 3.17 1.346 4.39 4.39 0 0 0 3.154-1.33l-2.516-1.452a1.734 1.734 0 0 1-1.301-.01zm5.253 2.289A6.012 6.012 0 0 1 24.978 31c-1.847 0-3.5-.83-4.605-2.138l-.028.016-.1-.174a5.986 5.986 0 0 1-1.29-3.72 6.02 6.02 0 0 1 6.023-6.016A6.02 6.02 0 0 1 31 24.984a5.988 5.988 0 0 1-1.43 3.893l-.001.001z"/>
    </g>
</svg>
