<svg xmlns="http://www.w3.org/2000/svg" width="27" height="27" viewBox="0 0 27 27">
    <defs>
        <linearGradient id="a" x1="80.033%" x2="10.683%" y1="75.689%" y2="70.887%">
            <stop offset="0%" stop-color="#136A8A"/>
            <stop offset="100%" stop-color="#28958C"/>
        </linearGradient>
    </defs>
    <path fill="url(#a)" fill-rule="nonzero" d="M23.724 12.43a8.004 8.004 0 0 0-3.467 6.6c0 .706.091 1.39.263 2.043-.622.005-1.292.006-2.015.007-7.311.006-9.265-.113-9.265-1.598 0-3.85 1.97-6.607 5.597-7.629l.54-.1.34.228.153.103c.786.577 1.718.892 2.634.892.916 0 1.848-.315 2.67-.918l.457-.305.54.1.09.021a8.68 8.68 0 0 1 1.463.556zm-5.22-.762c-3.166 0-5.73-2.61-5.73-5.834C12.774 2.61 15.338 0 18.504 0c3.166 0 5.73 2.61 5.73 5.834 0 3.224-2.564 5.834-5.73 5.834zm10.333 5.314a2.055 2.055 0 0 1 1.14 2.884l2.732 1.576a5.207 5.207 0 0 0-3.872-7.682v3.222zm-1.37 0V13.76a5.207 5.207 0 0 0-3.884 7.66l2.732-1.576a2.055 2.055 0 0 1 1.151-2.862zm-.1 3.836L24.4 22.53a5.197 5.197 0 0 0 3.752 1.593 5.196 5.196 0 0 0 3.733-1.575l-2.978-1.718a2.053 2.053 0 0 1-1.54-.012zm6.218 2.71a7.116 7.116 0 0 1-5.433 2.512 7.116 7.116 0 0 1-5.45-2.53l-.034.019-.119-.207a7.086 7.086 0 0 1-1.526-4.403 7.125 7.125 0 0 1 7.129-7.12 7.125 7.125 0 0 1 7.128 7.12 7.088 7.088 0 0 1-1.693 4.608l-.001.002z" transform="translate(-9)"/>
</svg>
