<svg xmlns="http://www.w3.org/2000/svg" width="285" height="262" viewBox="0 0 285 262">
    <g fill="none" fill-rule="evenodd">
        <path fill="#A3CEDA" d="M253.927 258.258c0 2.067-48.989 3.742-109.42 3.742-60.431 0-109.42-1.675-109.42-3.742 0-2.066 48.989-3.741 109.42-3.741 60.431 0 109.42 1.675 109.42 3.741" opacity=".216"/>
        <path fill="#267871" d="M95.581 74.447l-1.49-.93-17.106 6.012-.58 1.657c-.107.306-2.578 7.563 1.43 13.623 2.829 4.279 7.923 6.692 15.141 7.174l1.563.104 1.153-1.06c5.327-4.889 7.787-9.957 7.312-15.063-.673-7.232-7.148-11.346-7.423-11.517"/>
        <path fill="#08556B" d="M90.763 40.448l4.033 23.042 25.933 6.609-7.7-21.87-22.266-7.781M100.135 66.233l-17.09 3.213-15.339 8.183 2.507 12.022 36.01-12.655-6.088-10.763M58.856 51.66L46.37 71.655l7.7 21.87 16.081-21.373-11.295-20.49"/>
        <path fill="#176D85" d="M61.031.665L58.594 0 57.11 2.043c-.685.944-16.698 23.346-9.438 43.966 4.33 12.298 17.839 28.93 18.411 29.631l1.623 1.989 32.429-11.396.02-2.566c.006-.906.118-22.324-4.212-34.621C88.683 8.426 62.157.972 61.03.666"/>
        <path fill="#67968C" d="M65.3 41.056a7.301 7.301 0 0 1 4.471-9.312 7.312 7.312 0 0 1 9.322 4.466 7.302 7.302 0 0 1-4.47 9.313 7.312 7.312 0 0 1-9.322-4.467"/>
        <path fill="#FFFFFE" d="M73.41 42.078a3.66 3.66 0 0 1-4.661-2.233 3.655 3.655 0 0 1 2.235-4.656 3.66 3.66 0 0 1 4.66 2.232 3.655 3.655 0 0 1-2.234 4.657zM68.558 28.3c-5.703 2.004-8.711 8.27-6.705 13.968 2.006 5.698 8.279 8.703 13.982 6.699 5.704-2.004 8.711-8.27 6.705-13.969-2.006-5.698-8.279-8.703-13.982-6.698z"/>
        <path fill="#2D7C92" d="M34.1 200.107c-3.629 0-6.58-2.891-6.58-6.444s2.951-6.444 6.58-6.444c3.627 0 6.58 2.891 6.58 6.444s-2.953 6.444-6.58 6.444zm11.24-4.028a11.04 11.04 0 0 0 .266-2.416c0-.82-.09-1.628-.266-2.416l.31-.175 2.011-1.138-3.483-5.908-2.326 1.314c-.597-.533-1.087-1.004-1.792-1.408-.737-.423-1.257-.76-2.15-1.01v-2.908h-7.135v2.907c-1.338.25-1.656.588-2.393 1.01-.705.405-1.398.876-1.995 1.41l-.335-.178-2.02-1.137-1.167 1.969-1.164 1.97-1.162 1.969 2.32 1.313a11.037 11.037 0 0 0-.266 2.416c0 .82.09 1.628.266 2.416l-.31.175-2.011 1.138 3.483 5.908 2.012-1.137.314-.178c.597.534 1.33 1.005 2.035 1.41.737.422 1.055.76 2.393 1.01v2.789h7.136v-2.79c.892-.25 1.412-.587 2.15-1.01.704-.404 1.276-.875 1.873-1.409l.273.178 1.991 1.137 1.15-1.969 1.157-1.97 1.159-1.97-2.013-1.137-.311-.175z"/>
        <path fill="#267871" d="M266.832 211.966l-4.125-4.409c-.355-.38-.162-1.007.347-1.108a4 4 0 0 0 2.27-1.336 4.015 4.015 0 0 0 .164-4.976 4.014 4.014 0 0 0-7.092 1.335c-.135.5-.775.649-1.13.27l-4.125-4.409-4.414 4.121c-.379.355-1.007.162-1.108-.346a3.998 3.998 0 0 0-1.338-2.269 4.024 4.024 0 0 0-4.981-.163 4.005 4.005 0 0 0 1.337 7.085c.5.135.65.774.27 1.128l-4.413 4.122 4.125 4.41c.355.378.162 1.006-.347 1.107a4 4 0 0 0-2.27 1.336 4.015 4.015 0 0 0-.164 4.976 4.014 4.014 0 0 0 7.092-1.335c.135-.5.775-.65 1.13-.27l4.124 4.409 14.648-13.678"/>
        <path fill="#176D85" d="M186.976 90.341c.514.963.65 2.005.477 2.976-.105.585.484 1.052 1.036.834l6.43-2.551-8.473-21.317-6.43 2.55c-.552.22-.66.964-.183 1.317a4.587 4.587 0 0 1-1.54 8.11c-2.039.56-4.246-.389-5.241-2.253a4.571 4.571 0 0 1-.477-2.977c.105-.584-.485-1.052-1.037-.833l-6.43 2.55 8.474 21.318 6.43-2.551c.551-.22.66-.963.182-1.316a4.588 4.588 0 0 1 1.54-8.11c2.04-.56 4.247.389 5.242 2.253"/>
        <path fill="#54AAC2" d="M247.739 208.83l-42.13-15.073a6.151 6.151 0 0 1-3.72-7.866l28.866-80.525a6.16 6.16 0 0 1 7.874-3.718l42.129 15.073a6.151 6.151 0 0 1 3.722 7.867l-28.867 80.525a6.16 6.16 0 0 1-7.874 3.717"/>
        <path fill="#9BD2C7" d="M229.07 108.678l-23.954 66.82 53.724 19.222 23.954-66.82-53.725-19.222"/>
        <path fill="#9BD2C7" d="M205.786 175.712l53.725 19.222 23.953-66.82"/>
        <path fill="#176D85" d="M229.07 108.678l-23.954 66.82 53.724 19.222 23.954-66.82-53.725-19.222"/>
        <path fill="#2D7C92" d="M205.786 175.712l53.725 19.222 23.953-66.82"/>
        <path fill="#FFFFFE" d="M235.09 195.186a5.16 5.16 0 0 1-6.595 3.115 5.152 5.152 0 0 1-3.118-6.59 5.16 5.16 0 0 1 9.714 3.475"/>
        <path fill="#267871" d="M237.277 65.853v19.88c0 3.56 1.711 8.284 5.526 8.284h9.06l16.635 7.208v-7.208h5.626c3.823 0 6.416-4.804 6.416-8.284v-19.88c0-3.532-2.483-5.7-6.416-5.7h-31.32c-3.815 0-5.527 2.112-5.527 5.7"/>
        <path fill="#FFFFFE" d="M264.441 76.353a2.912 2.912 0 0 1 2.914-2.911 2.912 2.912 0 1 1 0 5.821 2.912 2.912 0 0 1-2.914-2.91M255.701 76.353a2.912 2.912 0 0 1 2.914-2.911 2.912 2.912 0 0 1 2.913 2.91 2.912 2.912 0 0 1-2.913 2.911 2.912 2.912 0 0 1-2.914-2.91M246.836 76.353a2.912 2.912 0 0 1 2.914-2.911 2.912 2.912 0 1 1 0 5.821 2.912 2.912 0 0 1-2.914-2.91"/>
        <path fill="#176D85" d="M245.331 42.776h-38.595c-4.846 0-7.816 3.013-7.816 7.364v24.498c0 4.289 3.106 10.022 7.816 10.022h6.902v9.069l20.53-9.07h11.163c4.702 0 7.556-5.633 7.556-10.02V50.14c0-4.421-2.855-7.364-7.556-7.364"/>
        <path fill="#FFFFFE" d="M215.078 66.666a3.589 3.589 0 0 1-3.59-3.587 3.588 3.588 0 0 1 3.59-3.587 3.588 3.588 0 0 1 3.59 3.587 3.588 3.588 0 0 1-3.59 3.587M225.848 66.666a3.589 3.589 0 0 1-3.59-3.587 3.588 3.588 0 0 1 3.59-3.587 3.588 3.588 0 0 1 3.59 3.587 3.588 3.588 0 0 1-3.59 3.587M236.772 66.666a3.588 3.588 0 0 1-3.59-3.587 3.588 3.588 0 0 1 3.59-3.587 3.588 3.588 0 0 1 3.59 3.587 3.589 3.589 0 0 1-3.59 3.587"/>
        <path fill="#54AAC2" d="M104.184 157.968c0 23.582-19.134 42.699-42.74 42.699-23.604 0-42.74-19.117-42.74-42.7 0-23.581 19.136-42.698 42.74-42.698 23.606 0 42.74 19.117 42.74 42.699"/>
        <path fill="#08556B" d="M24.07 135.491c-.488 3.533.732 5.36 0 7.066-.732 1.706-1.585 4.752-.853 6.823.731 2.07 1.83 6.578 2.804 6.7.976.121-.731-4.873.244-3.29.976 1.584.976 3.94 2.683 5.564 1.707 1.624 4.024 1.38 5.853 2.964 1.83 1.584 3.658 3.898 5.365 3.655 0 0-.121 1.218-.975 3.289s-.976 4.507.122 5.968c1.097 1.463 2.194 3.656 3.17 4.752.976 1.096 1.708 6.944 1.463 9.868-.243 2.923 1.098 9.501 4.146 10.963 3.048 1.462 0-.73-.61-2.558-.609-1.827.472-6.09 1.944-6.7 1.47-.609 2.812-3.045 3.91-4.751 1.097-1.706 3.902-2.437 4.755-4.507.854-2.072.488-4.508.976-5.604s1.829-3.533-1.098-4.995c-2.926-1.461-4.145-.73-4.267-2.07-.122-1.341-.854-2.803-2.927-3.412-2.073-.61-3.902-1.792-6.22-2.053-2.316-.261-2.804 1.566-4.023.591-1.22-.974-2.195-1.95-2.683-3.167-.487-1.218-1.95-.488-1.829-1.218.122-.732 2.073-2.802-.122-2.071-2.194.73-4.146.487-4.024-1.462.122-1.95 2.805-2.68 3.902-2.924 1.098-.244 1.951 1.096 3.292 1.95 1.342.852.123-1.219.855-2.68.731-1.462 3.536-1.34 3.901-3.411.367-2.072-.121-3.777 2.073-4.02 2.195-.245 4.512.121 4.756-.975.244-1.097-2.56.365-2.683-.975-.122-1.34 2.439-3.167 3.17-1.827.732 1.34 2.562 1.461 2.805.974.244-.487 0-1.34-.853-3.411-.854-2.07-1.707-1.462-2.439-3.776-.732-2.315-1.951.121-3.17-1.097-1.22-1.218-2.683-3.776-2.927-1.583-.244 2.192-.244 3.41-1.341 5.116-1.098 1.706-1.586.365-2.56-.73-.977-1.097-3.171-2.194-2.44-3.168.731-.975 1.463-3.533 2.561-2.802 1.097.73 2.805.73 2.56-.488-.243-1.218 0-1.705.488-2.314s2.196-1.706 2.196.487-.245 2.802 1.463 3.046c1.707.243 3.657.366 3.536-.731-.122-1.097.488-.853 0-2.68-.488-1.828-1.95-1.95-3.536-2.802-1.586-.852-2.44-2.193-3.78-1.706-1.342.487-1.464.975-1.586 2.315-.122 1.34-.853 1.827-1.341 1.218s.122-2.558-1.708-1.34c-1.828 1.218-2.56 3.29-3.535 1.828-.976-1.462 1.463-4.02-1.098-2.924-2.56 1.096-4.39 2.314-3.048 2.802 1.341.487 2.682 1.34 1.341 1.827-1.341.487-4.024-.365-5 .61-.975.974-3.658 5.846-3.658 5.846"/>
        <path fill="#08556B" d="M38.46 122.335c-.008 1.362.365 2.436 1.585 1.218 1.219-1.218 1.95-2.68 2.804-2.071.854.61 2.317.447 2.926.406.61-.04.732-1.868 2.44-1.624 1.706.244 1.097-.366 2.925-1.34 1.83-.975 5.732-2.68 1.708-2.193-4.024.487-4.268-.609-7.073 1.218-2.804 1.828-3.414 1.828-4.146 2.315-.731.487-1.584-1.462-2.56 0s-.603.683-.61 2.07M53.092 118.559c-1.441 1.243-3.658 3.045-1.952 3.045 1.708 0 2.537-.893 3.464.284.927 1.178.56 3.005.56 3.858 0 .853-.487 2.802.733 5.238 1.219 2.437 1.34 4.02 2.56 2.437 1.22-1.584 4.147-4.63 5.61-4.873 1.463-.244 2.926-.853 3.658-2.072.732-1.217 0-2.4 1.22-3.27 1.218-.871.975-1.968 1.34-3.308.366-1.34 3.659-1.34 2.195-2.07-1.463-.732-4.145-1.219-7.316-.853-3.17.365-9.39-.731-12.072 1.584"/>
        <path fill="#87CABE" d="M39.678 156.201c-.775 1.264-.365 1.34.488 1.584.854.244-.365 1.705.61 1.827.975.122 3.17.731 3.78 0 .61-.73-.975-.445-2.073-1.258-1.097-.813-2.253-3.05-2.805-2.153M98.697 176.058c-1.313.657-.731 1.705-1.95 2.437-1.22.73-.732.975-1.098 2.68-.367 1.705.122 2.68.975 1.34.854-1.34 3.536-7.188 2.073-6.457"/>
        <path fill="#2D7C92" d="M99.795 149.988c-.366.366-.976-1.705-1.342-2.68-.365-.974-.356-2.668.673-3.61 1.283-1.174.669 1.54.669 3.001 0 1.462.365 2.924 0 3.29zm-4.269-3.776c-.854-.487-2.438 0-4.388.609-1.952.61-.391-1.355.487-2.68.785-1.184.366.365 2.073.487 1.708.122 2.683 2.071 1.828 1.584zm-2.803 4.142c-.123.975.365 2.558-2.317 1.95-2.684-.61-2.684-2.072-3.78-.975-1.097 1.096-2.44 2.07-4.025.365-1.585-1.706-1.34-2.193-2.194-2.314-.608-.087-2.635-.54-4.326-.048.132-.078.272-.182.423-.318 1.22-1.096.976-1.462 2.317-2.68 1.342-1.219 2.317-2.315 3.292-1.219.975 1.097 3.049 1.34 2.317 2.559-.731 1.218-.243 1.949.61 1.218.853-.731 2.073-1.218 1.22-2.193-.854-.974-1.708-3.532-.488-1.827s1.585 2.558 2.317 3.532c.732.976 1.463 1.584 1.707.976.243-.61-.122-1.95.243-2.193.367-.244 0 2.07 1.099 2.193 1.096.121 1.706 0 1.585.974zm12.925 5.238c-.365-2.07-3.048-20.831-3.048-20.831s-7.194-4.63-8.414-3.655c-1.22.975-3.293.827-3.048-.135.243-.962 1.828-.718-.854-2.545-2.683-1.827-3.17-3.411-5.243-1.096-2.073 2.314-2.562 4.264-3.78 4.873-1.22.609-2.196 2.558-.854 3.045 1.341.487 1.462 0 2.56.974 1.098.975 2.562.731 2.805.122.244-.609.488-2.558.61-3.289.122-.73 1.361-3.167 1.229-1.218-.132 1.95 1.697 1.95.478 3.29-1.22 1.34-.488 2.435-2.927 2.68-2.438.243-2.56-1.219-3.902-.488-1.34.73-1.22 1.218-1.707 1.949-.488.73-3.049 2.193-3.049 2.193s-2.073-.731-1.097.61c.976 1.339 1.83 2.923.976 3.044-.854.123-3.171-1.218-3.171.244s-.366 3.045.61 3.412c.688.257 1.136.816 1.767.737-.49.212-.936.518-1.28.968-.948 1.239-.365 3.41-2.316 4.141-1.952.732-1.952 1.584-2.317 3.168-.366 1.584 0 5.604.487 5.969.488.366 1.342 3.41 3.414 3.168 2.074-.244 4.269-.339 5 .013.731.352 1.952-.744 2.317 2.058.366 2.802 1.22 3.167 1.707 4.63.487 1.461-.244 4.506 0 6.334.243 1.827 1.951 4.994 1.951 6.579 0 1.583 1.83 2.314 2.805 1.704.976-.608 3.049-1.827 3.902-3.776.854-1.95.854-2.923 2.195-5.482 1.341-2.558.976-4.385 1.585-6.335.61-1.95 2.077-3.289 4.087-5.482 2.01-2.192 1.648-3.411 0-3.29-1.648.123-2.747-1.46-3.6-3.41-.852-1.95-1.828-6.822-1.096-5.238.731 1.584 2.194 5.97 3.658 6.7 1.463.731 4.146-1.242 4.756-1.961.61-.72.365-2.79-1.22-3.643-1.585-.853-.61-1.584.976-.609 1.584.974 3.414 1.95 3.048-.122z"/>
        <path fill="#87CABE" d="M76.26 135.126c-.747.224-1.34 1.706-.975 2.436.366.732-.366-.365-1.341.244-.976.61-2.426 2.315-1.091 2.437 1.335.121 1.09-.975 2.31-.488 1.22.488 2.56.366 2.56-.852 0-1.219-.243-4.142-1.462-3.777M68.335 129.522c-.735.105-.976 1.95.61 2.193 1.584.244 4.423-.366 3.37-1.34-1.054-.975-2.274-1.096-3.98-.853"/>
        <path fill="#54AAC2" d="M145.012 193.449l74.231-55.2H73.32l71.693 55.2"/>
        <path fill="#2D7C92" d="M75.987 226.464s6.089 5.074 10.278 5.074h120.032c7.15 0 12.946-5.791 12.946-12.934V138.25L75.987 226.464"/>
        <path fill="#2D7C92" d="M216.575 226.464a12.926 12.926 0 0 1-10.278 5.074H86.265c-7.15 0-12.946-5.791-12.946-12.934V138.25s134.446 83.376 143.256 88.214"/>
        <path fill="#176D85" d="M75.987 226.464c.142.186.29.367.442.544l.041.048c.143.164.29.326.44.483l.046.049c.16.165.324.327.493.483.003.003.005.006.009.008.525.488 1.09.932 1.69 1.327.028.02.057.037.086.055a12.879 12.879 0 0 0 1.12.648l.148.076c.17.084.342.165.515.242.041.018.082.038.124.055.432.187.877.351 1.332.49l.149.042c.174.051.349.1.525.144l.23.053a13.194 13.194 0 0 0 1.176.21c.087.012.174.024.261.034.163.018.327.031.492.043.077.006.153.095.23.1.241.013.484.103.729.103h120.032c.245 0 .487-.09.729-.104.077-.004.153-.052.23-.058.165-.012.329-.046.492-.064.087-.01.174-.032.261-.043.153-.02.305-.048.455-.074.087-.014.173-.032.259-.048.155-.03.308-.063.461-.098a13.038 13.038 0 0 0 .756-.197c.05-.014.1-.027.148-.042.456-.14.9-.304 1.333-.49l.124-.056c.173-.077.345-.157.514-.241l.15-.077c.162-.084.323-.17.481-.26l.135-.078c.17-.1.338-.203.503-.31l.086-.055c.6-.395 1.166-.84 1.69-1.327l.01-.008c.168-.156.332-.318.492-.483l.046-.049c.15-.157.297-.319.44-.483l.04-.048c.153-.177.3-.358.443-.544-4.408-2.42-70.294-42.812-70.294-42.812s-65.886 40.391-70.294 42.812"/>
        <path fill="#267871" d="M73.319 138.35l66.273-59.123a11.143 11.143 0 0 1 13.378 0l66.273 59.122H73.32"/>
        <path fill="#FFFFFE" d="M146.46 183.695l59.15-36.906V91.344H88.31v56.08l58.15 36.27"/>
        <path fill="#267871" d="M149.563 27.626l-14.47-17.335-14.47 17.335h5.598v22.279h17.84v-22.28h5.502"/>
        <path fill="#267871" d="M166.362 54.806V32.527h-18.287v22.28H143l14.47 17.334 14.47-17.335h-5.577"/>
        <path fill="#08556B" d="M191.834 227.604c-4.425 1.6-6.723 6.497-5.122 10.919 1.601 4.421 6.504 6.717 10.93 5.117 4.425-1.6 6.723-6.497 5.122-10.919-1.6-4.421-6.504-6.717-10.93-5.117"/>
        <path fill="#54AAC2" d="M192.883 183.883a22.396 22.396 0 0 0-17.151-.752l-.154.056c-5.504 2.034-9.94 6.085-12.489 11.408-2.55 5.324-2.923 11.316-1.05 16.872 1.965 5.833 6.107 10.502 11.661 13.147 3.011 1.434 5.356 3.963 6.434 6.94l.787 2.175 23.223-8.393-.787-2.176c-1.085-2.993-.916-6.407.463-9.364 2.53-5.43 2.8-11.524.76-17.156-2.057-5.682-6.21-10.212-11.697-12.757"/>
        <path fill="#176D85" d="M180.134 231.554l1.318 3.64a5.388 5.388 0 0 0 6.898 3.229l13.091-4.732a5.38 5.38 0 0 0 3.234-6.891l-1.318-3.64-23.223 8.394"/>
        <path fill="#2D7C92" d="M179.78 198.206a5.982 5.982 0 0 1-7.952 2.874 5.972 5.972 0 0 1-2.877-7.945 5.982 5.982 0 0 1 7.952-2.874 5.972 5.972 0 0 1 2.877 7.945"/>
        <path fill="#2D7C92" d="M177.269 196.084c5.58.994 9.297 6.319 8.302 11.894-.995 5.575-6.326 9.288-11.906 8.294-5.58-.994-9.297-6.32-8.302-11.894.995-5.575 6.326-9.288 11.906-8.294"/>
        <path fill="#FFFFFE" d="M176.175 201.877a4.256 4.256 0 1 1-1.496 8.38 4.256 4.256 0 1 1 1.496-8.38"/>
        <path fill="#54AAC2" d="M71.815 230.713c-6.925-2.222-10.749-9.659-8.524-16.577 2.225-6.918 9.668-10.738 16.593-8.515 6.925 2.222 10.749 9.658 8.524 16.577-2.225 6.918-9.668 10.738-16.593 8.515zm23.976-.955a23.022 23.022 0 0 0 2.02-4.542c.514-1.597.849-3.224 1.006-4.868l.7-.151 4.551-.982-2.949-13.639-4.55.982-.713.154c-.804-1.405-2.238-2.877-3.33-4.096-1.144-1.275-2.561-2.454-4.266-3.538l1.905-5.923-13.495-4.332-1.905 5.923c-1.087.188-2.795.365-4.467.736-1.6.355-2.851.965-4.324 1.639l-.344-.493-3.054-3.423-3.413 3.135-3.432 3.13-3.44 3.126 3.131 3.448.484.532a23.012 23.012 0 0 0-2.02 4.542 23.004 23.004 0 0 0-1.004 4.868l-.701.151-4.55.982 2.949 13.639 5.263-1.136c.804 1.405 1.176 2.536 2.268 3.755 1.143 1.274 2.429 2.412 3.203 3.197l-1.538 4.782 5.594 1.796 4.432 1.422 3.47 1.114 1.537-4.782c2.018.11 3.858-.024 5.53-.395 1.599-.355 3.382-.795 4.855-1.469l.61.578 3.186 3.466 3.48-3.114 3.464-3.119 3.457-3.12-3.123-3.446-.477-.53z"/>
        <path fill="#FFFFFE" d="M68.335 153.926c0-4.16-2.783-7.948-6.768-9.213l-1.426-.453-.072-1.492c-.329-6.81-5.935-12.143-12.763-12.143-6.09 0-11.364 4.332-12.538 10.299l-.29 1.47-1.48.238c-5.063.815-8.882 5.29-8.882 10.41 0 5.815 4.735 10.546 10.555 10.546h23.993c5.333 0 9.67-4.334 9.67-9.662"/>
        <path fill="#54AAC2" d="M27.52 118.726c0-1.974-1.465-3.77-3.563-4.371l-.75-.214-.039-.709c-.173-3.23-3.124-5.76-6.718-5.76-3.207 0-5.982 2.055-6.6 4.886l-.153.697-.779.113c-2.665.387-4.676 2.51-4.676 4.938 0 2.758 2.493 5.002 5.557 5.002h12.63c2.807 0 5.09-2.055 5.09-4.582M71.405 101.902c0-1.032-.766-1.973-1.865-2.287l-.392-.112-.02-.371c-.09-1.69-1.635-3.014-3.516-3.014-1.678 0-3.13 1.075-3.454 2.556l-.08.365-.407.06c-1.396.202-2.448 1.313-2.448 2.584 0 1.443 1.305 2.618 2.908 2.618h6.61c1.469 0 2.664-1.077 2.664-2.399"/>
        <path fill="#176D85" d="M147.985 136.491a5.1 5.1 0 0 0 1.024-.746c.341-.315.512-.694.512-1.139v-1.61c-.394-.157-.951-.32-1.674-.49a9.633 9.633 0 0 0-2.225-.256c-1.103 0-1.898.222-2.383.668-.487.445-.73 1.126-.73 2.041 0 1.468.776 2.199 2.325 2.199.367 0 .853-.04 1.457-.117a4.802 4.802 0 0 0 1.694-.55zm-1.576-19.75c1.917 0 3.781.295 5.593.883 1.812.59 3.42 1.492 4.825 2.71 1.405 1.217 2.528 2.768 3.368 4.652.84 1.886 1.26 4.137 1.26 6.754 0 .367-.02.851-.059 1.452-.039.604-.124 1.244-.255 1.924a12.013 12.013 0 0 1-.611 2.081 7.029 7.029 0 0 1-1.123 1.924 5.336 5.336 0 0 1-1.772 1.394c-.708.353-1.563.53-2.56.53-.736 0-1.354-.093-1.852-.274-.498-.184-.905-.42-1.22-.708a2.962 2.962 0 0 1-.709-.942 3.925 3.925 0 0 1-.316-.941 8.62 8.62 0 0 1-3.072 1.865c-1.156.405-2.35.608-3.584.608-2.023 0-3.545-.51-4.57-1.532-1.023-1.02-1.535-2.395-1.535-4.122 0-1.126.21-2.075.63-2.847a5.287 5.287 0 0 1 1.654-1.865 6.892 6.892 0 0 1 2.344-1.02 11.56 11.56 0 0 1 2.698-.315c.997 0 1.825.085 2.481.255.656.17 1.169.347 1.537.53 0-.522-.067-1.007-.198-1.452a2.625 2.625 0 0 0-.669-1.139c-.315-.314-.743-.555-1.28-.726-.54-.17-1.216-.256-2.029-.256-1.103 0-2.082.145-2.934.433-.854.288-1.542.68-2.068 1.178l-1.26-3.809a10.201 10.201 0 0 1 3.269-1.472 15.071 15.071 0 0 1 3.742-.452c1.89 0 3.36.275 4.411.825 1.05.55 1.825 1.243 2.324 2.08.498.838.794 1.74.886 2.71.092.969.138 1.885.138 2.749v2.63c0 .575.013 1.151.04 1.727.025.576.104 1.1.236 1.57.13.473.32.852.57 1.139.25.29.612.433 1.084.433.63 0 1.123-.25 1.477-.747.354-.496.63-1.093.827-1.786.197-.694.322-1.394.374-2.1.053-.708.08-1.27.08-1.689 0-1.754-.29-3.37-.867-4.849a10.968 10.968 0 0 0-2.482-3.828c-1.077-1.074-2.377-1.91-3.9-2.514-1.522-.601-3.243-.903-5.159-.903-1.89 0-3.591.302-5.1.903-1.51.603-2.784 1.434-3.82 2.494-1.039 1.06-1.833 2.317-2.384 3.769-.551 1.453-.828 3.043-.828 4.77 0 1.65.257 3.201.769 4.654.512 1.452 1.26 2.723 2.245 3.808.984 1.086 2.186 1.943 3.604 2.572 1.418.628 3.045.942 4.884.942.682 0 1.3-.047 1.852-.137a16.24 16.24 0 0 0 1.555-.334c.485-.131.952-.288 1.398-.471.447-.183.919-.367 1.418-.55l.788 2.67c-1.13.524-2.305.916-3.525 1.178-1.221.261-2.422.393-3.605.393-1.969 0-3.82-.348-5.552-1.042a13.587 13.587 0 0 1-4.55-2.963c-1.3-1.282-2.324-2.833-3.073-4.653-.748-1.819-1.122-3.867-1.122-6.145 0-2.408.42-4.521 1.26-6.34.84-1.82 1.963-3.344 3.368-4.575 1.404-1.23 3.026-2.152 4.864-2.768a18.14 18.14 0 0 1 5.79-.923z"/>
        <path fill="#54AAC2" d="M240.091 239.53l-2.617 2.177.31 3.39-2.88-1.816-3.13 1.343.837-3.298-2.245-2.559 3.399-.224 1.741-2.923 1.264 3.16 3.321.75M197.784 21.68l-.407 3.379 2.555 2.25-3.341.657-1.353 3.123-1.658-2.972-3.39-.32 2.316-2.494-.743-3.32 3.09 1.43 2.931-1.732M31.647 228.848l2.577 2.224 3.295-.86-1.32 3.136 1.836 2.865-3.393-.286-2.16 2.631-.777-3.313-3.172-1.238 2.914-1.762.2-3.397M5.386 159.641l1.14 3.206 3.291.879-2.7 2.075.181 3.397-2.809-1.923-3.179 1.22.964-3.263-2.146-2.642 3.405-.094 1.853-2.855M29.043 48.586l2.71 2.062 3.236-1.06-1.127 3.21 2.01 2.748-3.405-.078-1.994 2.758-.978-3.259-3.242-1.042 2.8-1.937-.01-3.402M25.938 66.634l2.008.402 1.47-1.425.237 2.033 1.81.956-1.86.854-.352 2.015-1.388-1.504-2.027.289 1.004-1.784-.902-1.836"/>
    </g>
</svg>
