<svg xmlns="http://www.w3.org/2000/svg" width="48" height="48" viewBox="0 0 48 48">
    <g fill="none" fill-rule="evenodd">
        <circle cx="24" cy="24" r="24" fill="#136A8A"/>
        <g fill="#FFF" stroke="#FFF" stroke-width=".5">
            <path d="M30.262 28.18a.338.338 0 0 1-.235-.094l-3.956-3.755a.35.35 0 0 1-.015-.491.34.34 0 0 1 .486-.015l3.956 3.755a.35.35 0 0 1 .015.491.341.341 0 0 1-.25.11zM17.058 28.18a.342.342 0 0 1-.251-.109.35.35 0 0 1 .015-.491l3.957-3.755a.341.341 0 0 1 .486.015.35.35 0 0 1-.015.491l-3.957 3.755a.338.338 0 0 1-.235.095z"/>
            <path fill-rule="nonzero" d="M32.602 31.672H14.719c-.948 0-1.719-.78-1.719-1.739V18.074c0-.959.771-1.739 1.719-1.739h17.883c.947 0 1.719.78 1.719 1.74v11.858c0 .96-.772 1.74-1.719 1.74zM14.719 17.031c-.569 0-1.031.468-1.031 1.043v11.86c0 .575.462 1.043 1.03 1.043h17.884c.569 0 1.031-.468 1.031-1.044V18.074c0-.575-.462-1.043-1.031-1.043H14.719z"/>
            <path d="M23.66 25.752c-.457 0-.914-.154-1.262-.46l-8.827-7.793a.352.352 0 0 1-.034-.491.343.343 0 0 1 .485-.033l8.828 7.79c.44.388 1.182.388 1.62 0l8.817-7.778a.341.341 0 0 1 .485.034.352.352 0 0 1-.033.49l-8.816 7.78a1.907 1.907 0 0 1-1.263.46z"/>
        </g>
    </g>
</svg>
