<svg xmlns="http://www.w3.org/2000/svg" width="40" height="40" viewBox="0 0 40 40">
    <g fill="none" fill-rule="evenodd">
        <circle cx="20" cy="20" r="20" fill="#136A8A"/>
        <path fill="#FFF" fill-rule="nonzero" d="M18.294 26.739a1.01 1.01 0 0 1 .72-.287h8.024c.583 0 1.1.398 1.194.917.12.653-.417 1.097-1.219 1.097H19.41L15.4 32.213a1.01 1.01 0 0 1-1.09.208 1.003 1.003 0 0 1-.65-.952v-3.003h-.813c-1.85 0-3.348-1.47-3.348-3.277v-10.43c0-1.818 1.506-3.278 3.348-3.278h6.692c.566 0 1.02.458 1.02 1.007 0 .545-.474 1.007-1.02 1.007h-6.667c-.718 0-1.308.576-1.308 1.264v10.43c0 .687.59 1.263 1.308 1.263h1.832c.566 0 1.02.458 1.02 1.007v1.676l2.569-2.396zm10.65-12.06c1.408 0 2.556 1.11 2.556 2.48 0 .037 0 .037-.007.154l-.764 4.69c-.18 1.464-1.288 2.347-2.874 2.347h-5.671a2.52 2.52 0 0 1-1.442-.438c-.17.066-.35.1-.54.1h-1.906c-.818 0-1.49-.656-1.49-1.466v-5.821c0-.81.672-1.466 1.49-1.466h1.907c.31 0 .599.09.838.257.72-.251 1.435-.845 1.435-1.665v-2.247c0-.44.293-.82.69-.949.662-.258 1.75-.274 2.576.324.695.493 1.053 1.328 1.053 2.388v1.312h2.15zm-10.049 2.618v4.7h.758v-4.7h-.758zm10.05-.58h-3.17c-.566 0-1.02-.457-1.02-1.007v-2.083c0-.41-.102-.726-.29-.83-.124-.07-.169.289-.133 1.075 0 1.411-.386 2.287-1.394 2.99a5.55 5.55 0 0 1-1.195.626v4.454c0 .253.22.466.49.466h5.647c.655 0 .8-.18.837-.514l.006-.1.709-4.675a.476.476 0 0 0-.487-.401z"/>
    </g>
</svg>
