<svg xmlns="http://www.w3.org/2000/svg" width="40" height="40" viewBox="0 0 40 40">
    <g fill="none" fill-rule="evenodd">
        <circle cx="20" cy="20" r="20" fill="#FFF"/>
        <path fill="#98A6BA" fill-rule="nonzero" d="M20.444 19.26a3.135 3.135 0 0 0 3.137-3.135 3.135 3.135 0 0 0-3.137-3.137 3.135 3.135 0 0 0-3.136 3.137 3.135 3.135 0 0 0 3.136 3.136zm0 1.728a4.862 4.862 0 0 1-4.863-4.863 4.862 4.862 0 0 1 4.863-4.864 4.862 4.862 0 0 1 4.864 4.864 4.862 4.862 0 0 1-4.864 4.863zm0 2.818a5.542 5.542 0 0 1-2.997-.9c-1.875.613-2.934 1.968-3.112 3.971.334.044.79.083 1.348.116 1.26.075 2.976.115 4.76.114 1.793-.002 3.506-.045 4.76-.123.56-.034 1.018-.075 1.351-.12-.178-1.992-1.238-3.346-3.113-3.958-.903.582-1.949.9-2.997.9zm3.113-2.663l.076.017c3 .833 4.675 3.129 4.675 6.32 0 1.245-1.677 1.35-7.863 1.354-6.206.005-7.864-.094-7.864-1.332 0-3.21 1.672-5.508 4.75-6.36l.46-.083.288.19.13.086a3.857 3.857 0 0 0 2.235.743c.778 0 1.569-.262 2.267-.765l.388-.254.458.084z"/>
    </g>
</svg>
