<svg xmlns="http://www.w3.org/2000/svg" width="21" height="22" viewBox="0 0 21 22">
    <defs>
        <linearGradient id="a" x1="72.169%" x2="32.29%" y1="92.756%" y2="9.305%">
            <stop offset="0%" stop-color="#136A8A"/>
            <stop offset="100%" stop-color="#28958C"/>
        </linearGradient>
    </defs>
    <path fill="url(#a)" fill-rule="nonzero" d="M9.654 11.801c-3.3 0-5.971-2.64-5.971-5.9C3.683 2.64 6.355 0 9.653 0c3.3 0 5.972 2.64 5.972 5.9 0 3.261-2.672 5.901-5.971 5.901zm3.821.187l.094.022c3.682 1.01 5.739 3.796 5.739 7.668 0 1.51-2.06 1.636-9.653 1.642C2.035 21.326 0 21.206 0 19.704c0-3.894 2.053-6.682 5.832-7.716l.563-.101.355.23.16.105c.818.583 1.79.902 2.744.902.955 0 1.925-.319 2.783-.928l.475-.31.563.102z" transform="translate(.78)"/>
</svg>
