<svg xmlns="http://www.w3.org/2000/svg" width="85" height="90" viewBox="0 0 85 90">
    <defs>
        <linearGradient id="a" x1="91.541%" x2="9.671%" y1="96.7%" y2="3.701%">
            <stop offset="0%" stop-color="#91B0BB"/>
            <stop offset="100%" stop-color="#B4CBC9"/>
        </linearGradient>
    </defs>
    <path fill="url(#a)" fill-rule="nonzero" d="M19.916 57.305a3.521 3.521 0 0 1 3.527 3.515 3.521 3.521 0 0 1-3.527 3.516 3.521 3.521 0 0 1-3.527-3.516 3.521 3.521 0 0 1 3.527-3.515zm9.7 3.515a3.521 3.521 0 0 0 3.526 3.516 3.521 3.521 0 0 0 3.527-3.516 3.521 3.521 0 0 0-3.527-3.515 3.521 3.521 0 0 0-3.527 3.515zm13.226 0a3.521 3.521 0 0 0 3.527 3.516 3.521 3.521 0 0 0 3.527-3.516 3.521 3.521 0 0 0-3.527-3.515 3.521 3.521 0 0 0-3.527 3.515zM61.71 86.484A3.521 3.521 0 0 1 58.184 90h-43.91C6.493 90 .164 83.692.164 75.937V47.11c0-7.754 6.329-14.062 14.108-14.062H18.5V20.648C18.499 9.263 27.992 0 39.661 0c11.668 0 21.162 9.263 21.162 20.648v12.399h4.239c1.47 0 2.742.16 3.89.487a3.514 3.514 0 0 1 2.42 4.348 3.529 3.529 0 0 1-4.362 2.412c-.508-.145-1.145-.216-1.948-.216H14.273c-3.89 0-7.054 3.154-7.054 7.031v28.828c0 3.877 3.165 7.032 7.054 7.032h43.91a3.522 3.522 0 0 1 3.528 3.515zM25.553 33.047h28.216V20.648c0-7.508-6.33-13.617-14.108-13.617-7.78 0-14.108 6.109-14.108 13.617v12.399zm46.739 49.922a3.521 3.521 0 0 0-3.527 3.515A3.521 3.521 0 0 0 72.292 90a3.521 3.521 0 0 0 3.527-3.516 3.521 3.521 0 0 0-3.527-3.515zm12.54-24.748c-.077-6.819-5.666-12.342-12.525-12.342-6.906 0-12.525 5.6-12.525 12.485a3.521 3.521 0 0 0 3.527 3.515 3.521 3.521 0 0 0 3.527-3.515c0-3.007 2.455-5.454 5.471-5.454 3.017 0 5.472 2.447 5.472 5.454v.095a5.452 5.452 0 0 1-3.326 4.928c-3.446 1.467-5.672 4.855-5.672 8.631v3.04a3.521 3.521 0 0 0 3.526 3.516 3.521 3.521 0 0 0 3.527-3.515v-3.04c0-.957.546-1.806 1.39-2.165a12.473 12.473 0 0 0 7.608-11.633z"/>
</svg>
