<svg xmlns="http://www.w3.org/2000/svg" width="40" height="40" viewBox="0 0 40 40">
    <g fill="none" fill-rule="evenodd">
        <rect width="40" height="40" fill="#FFF" rx="20"/>
        <path fill="#98A6BA" fill-rule="nonzero" stroke="#98A6BA" stroke-width=".5" d="M19.982 8.002a11.975 11.975 0 0 0-11.01 7.262l-.15.05.058.173c-2.483 6.126.469 13.105 6.594 15.589 1.431.58 2.96.877 4.504.877 6.614 0 11.976-5.36 11.977-11.974.001-6.613-5.36-11.976-11.973-11.977zm9.393 18.013l-.615-.614v-1.432a.399.399 0 0 0-.04-.178l-1.557-3.11V19.18a.4.4 0 0 0-.177-.332l-1.198-.798a.4.4 0 0 0-.32-.055l-1.466.366-2.463-1.057-.339-2.374.94-.939h2.016l.678 1.02a.4.4 0 0 0 .267.172l2.395.4c.064.01.13.005.191-.016l2.206-.735a11.137 11.137 0 0 1-.518 11.184zm-1.647-14.08l-.649.434-1.809-.362-1.174-.391a.392.392 0 0 0-.223-.009l-1.484.37-.65-.216.482-.964h1.35a.399.399 0 0 0 .178-.042l1.381-.69a11.218 11.218 0 0 1 2.598 1.87zM15.606 9.693l.958.639c.047.031.1.052.156.061l1.935.323-.19.565-1.007.336a.4.4 0 0 0-.216.173l-1.146 1.91-1.842 1.105-2.714.388a.4.4 0 0 0-.343.395v1.197a.4.4 0 0 0 .116.282l.682.682v.686l-1.66-1.108-.603-1.807a11.241 11.241 0 0 1 5.874-5.827zM14.47 22.78l-1.805-.362-.67-1.337v-.938l1.487-1.487.55 1.1a.4.4 0 0 0 .358.222h2.568l1.081 1.802a.4.4 0 0 0 .343.193h1.11l-.28 1.4-1.511 1.512a.4.4 0 0 0-.118.282v.998l-1.437 1.077a.4.4 0 0 0-.16.32v1.442l-.496-.165-.7-1.753V23.17a.4.4 0 0 0-.32-.391zm-1.2 6.136a11.174 11.174 0 0 1-3.981-12.202l.332.995a.399.399 0 0 0 .156.206l1.99 1.326-.454.454a.4.4 0 0 0-.116.283v1.197c0 .062.014.123.041.178l.799 1.597a.4.4 0 0 0 .28.213l1.676.335v3.665a.4.4 0 0 0 .028.148l.798 1.996a.4.4 0 0 0 .245.23l1.198.399a.4.4 0 0 0 .523-.378V27.76l1.437-1.077a.4.4 0 0 0 .16-.32v-1.032l1.48-1.48a.4.4 0 0 0 .108-.204l.4-1.996a.4.4 0 0 0-.392-.477h-1.37l-1.082-1.802a.4.4 0 0 0-.342-.194h-2.547l-.686-1.376a.4.4 0 0 0-.64-.104l-.518.517v-.633a.4.4 0 0 0-.117-.283l-.681-.681v-.686l2.452-.35a.401.401 0 0 0 .148-.053l1.996-1.198a.399.399 0 0 0 .137-.136l1.121-1.87 1.058-.353a.395.395 0 0 0 .252-.252l.4-1.197a.4.4 0 0 0-.314-.52l-2.31-.384-.406-.271a11.146 11.146 0 0 1 7.677.285l-.73.364h-1.502a.4.4 0 0 0-.36.221l-.798 1.597a.4.4 0 0 0 .232.557l1.197.399c.072.024.15.027.223.009l1.484-.371 1.087.362c.016.005.032.01.048.013l1.996.399c.104.02.212 0 .3-.06l.908-.605c.447.498.85 1.035 1.201 1.604l-1.964.655-2.126-.355-.703-1.054a.4.4 0 0 0-.33-.177h-2.395a.4.4 0 0 0-.282.117l-1.198 1.197a.4.4 0 0 0-.113.339l.4 2.794a.4.4 0 0 0 .24.31l2.793 1.198c.08.035.17.042.254.02l1.426-.356.87.582v1.383c0 .062.014.123.04.178l1.558 3.11v1.502a.4.4 0 0 0 .117.282l.835.836c-3.704 4.936-10.708 5.935-15.644 2.232z"/>
    </g>
</svg>
