<svg xmlns="http://www.w3.org/2000/svg" width="19" height="23" viewBox="0 0 19 23">
    <g fill="none" fill-rule="evenodd">
        <path stroke="#707070" stroke-linecap="round" stroke-linejoin="round" stroke-width="1.602" d="M17.821 9.753c0 4.212-7.026 10.985-8.235 12.324a.235.235 0 0 1-.351 0C8.026 20.738 1 13.965 1 9.753c0-4.609 3.765-8.345 8.41-8.345 4.646 0 8.411 3.736 8.411 8.345zm-3.978-.357a4.281 4.281 0 0 0-4.284-4.28 4.28 4.28 0 0 0-4.282 4.28 4.28 4.28 0 0 0 4.282 4.28 4.281 4.281 0 0 0 4.284-4.28z"/>
    </g>
</svg>
