<svg xmlns="http://www.w3.org/2000/svg" width="23" height="22" viewBox="0 0 23 22">
    <g fill="#FFF" fill-rule="evenodd" stroke="#136A8A">
        <path d="M11.803 1.035A9.846 9.846 0 0 0 5.998 2.91a.457.457 0 0 0-.122.61L7.47 6.099a.46.46 0 0 0 .66.13 5.756 5.756 0 0 1 3.394-1.096c3.191 0 5.787 2.587 5.787 5.768 0 3.18-2.596 5.768-5.787 5.768a5.756 5.756 0 0 1-3.394-1.096.46.46 0 0 0-.66.13L5.876 18.28a.457.457 0 0 0 .122.61 9.846 9.846 0 0 0 5.805 1.876c5.457 0 9.897-4.425 9.897-9.865s-4.44-9.865-9.897-9.865z"/>
        <path d="M7.3 14.6a.456.456 0 0 0-.022-.47L6.2 12.52h6.521c.896 0 1.625-.726 1.625-1.619s-.729-1.619-1.625-1.619h-6.52L7.277 7.67a.456.456 0 0 0-.382-.712H3.789a.46.46 0 0 0-.382.204l-2.33 3.484a.456.456 0 0 0 0 .508l2.33 3.484a.46.46 0 0 0 .382.204h3.107c.17 0 .325-.093.405-.242z"/>
    </g>
</svg>
