<svg xmlns="http://www.w3.org/2000/svg" width="254" height="211" viewBox="0 0 254 211">
    <g fill="#FFF" fill-rule="evenodd">
        <path fill-rule="nonzero" d="M125.062 44.523l-6.741-12.676-15.34-1.981v14.657h22.081zm-27.56 2.733v-20.5a2.737 2.737 0 0 1 3.092-2.71l19.835 2.562a2.74 2.74 0 0 1 2.068 1.429l9.54 17.938c.968 1.82-.355 4.014-2.42 4.014h-29.375a2.736 2.736 0 0 1-2.74-2.733zm2.428-33.185l26.943 4.14a2.74 2.74 0 0 1 1.935 1.3l15.975 26.7a2.73 2.73 0 0 1-.949 3.747c-1.299.774-2.98.35-3.756-.946l-15.314-25.594-28.02-4.306a2.735 2.735 0 0 1-2.322-2.735l.134-10.646a.228.228 0 0 0-.226-.23h-8.773V.035h.985V5.5h-.984V.035h8.772a5.704 5.704 0 0 1 5.705 5.747l-.105 8.29zM86.542.035V5.5h-2.894a2.736 2.736 0 0 1-2.74-2.733 2.736 2.736 0 0 1 2.74-2.733h2.894zm55.73 50.315a2.735 2.735 0 0 1-2.525-2.932 2.738 2.738 0 0 1 2.939-2.519l50.428 3.815c1.194.09 2.19.944 2.461 2.108l3.966 17.056c.14.6.072 1.23-.192 1.786l-4.119 8.689a2.74 2.74 0 0 1-2.476 1.564H174.13a2.736 2.736 0 0 1-2.736-2.863c.004-.086.008-.148.017-.275l.005-.084c.005-.076.007-.117.007-.14 0-6.225-5.049-11.27-11.275-11.27s-11.275 5.045-11.275 11.27c0 .023.002.064.007.14l.005.084c.009.127.013.19.017.275a2.736 2.736 0 0 1-2.737 2.863h-32.849a2.736 2.736 0 0 1-2.74-2.733 2.736 2.736 0 0 1 2.74-2.733h30.21c1.035-8.25 8.081-14.632 16.622-14.632 8.54 0 15.587 6.383 16.623 14.632h14.248l2.97-6.264-3.296-14.174-48.422-3.663z"/>
        <path d="M85.394 64.491H75.175c-1.172 0-2.12-.966-2.12-2.159v-.044c0-1.192.948-2.159 2.12-2.159h15.22c1.172 0 2.122.967 2.122 2.16v.043c0 1.193-.95 2.16-2.122 2.16h-5zM62.983 64.491h-3.799c-1.172 0-2.12-.966-2.12-2.159v-.044c0-1.192.948-2.159 2.12-2.159H68.054c1.171 0 2.122.967 2.122 2.16v.043c0 1.193-.95 2.16-2.123 2.16h-5.07zM81.534 49.185H69.33c-1.172 0-2.12-.966-2.12-2.159v-.043c0-1.193.948-2.16 2.12-2.16h19.294c1.171 0 2.121.967 2.121 2.16v.043c0 1.193-.95 2.16-2.122 2.16h-7.09zM94.216 79.797H72.862c-1.172 0-2.12-.967-2.12-2.16v-.043c0-1.193.948-2.159 2.12-2.159h30.275c1.173 0 2.123.966 2.123 2.16v.043c0 1.192-.95 2.159-2.122 2.159h-8.922z"/>
        <path fill-rule="nonzero" d="M176.714 73.722h14.248l2.969-6.262-.802-3.43-21.093.06c2.51 2.55 4.21 5.9 4.678 9.632zm-77.206-9.42a2.736 2.736 0 0 1-2.748-2.725 2.736 2.736 0 0 1 2.732-2.741l95.801-.28a2.738 2.738 0 0 1 2.676 2.113l1.515 6.477c.14.601.073 1.232-.192 1.79l-4.118 8.688a2.74 2.74 0 0 1-2.477 1.564h-18.623a2.736 2.736 0 0 1-2.737-2.863c.004-.086.008-.148.017-.275l.006-.084c.004-.075.006-.116.006-.14 0-6.225-5.049-11.27-11.275-11.27s-11.275 5.045-11.275 11.27c0 .024.002.065.007.14l.006.084.016.275a2.736 2.736 0 0 1-2.606 2.86 2.737 2.737 0 0 1-2.867-2.6 8.157 8.157 0 0 0-.01-.166l-.007-.103a7.28 7.28 0 0 1-.018-.49c0-4.536 1.807-8.651 4.741-11.666l-48.57.142z"/>
        <path d="M194.69 61.951h-10.529l-2.985-8.746h11.4l2.115 8.746M180.47 71.458l22.116 1.486v-8.077l-23.237 1.295 1.12 5.296M168.3 76.888c0 4.433-3.598 8.022-8.041 8.022-4.434 0-8.032-3.59-8.032-8.022 0-4.423 3.598-8.013 8.032-8.013 4.443 0 8.04 3.59 8.04 8.013"/>
        <g fill-rule="nonzero">
            <path d="M13.67 130.234c.015.008-.014 0-.088-.024a2.153 2.153 0 0 1-.142-.06c.013 0 0-.014-.04-.041a.903.903 0 0 1-.163-.082h-.02l-.041-.04a.543.543 0 0 1-.143-.102c0 .014-.02 0-.06-.04a1.188 1.188 0 0 1-.123-.102l-.162-.162a.349.349 0 0 0-.102-.101c-.027-.04-.04-.068-.04-.081a.785.785 0 0 1-.102-.142l-.02-.02c0-.014-.008-.02-.021-.02v-.021c0-.014-.007-.02-.02-.02L4.819 116.68v15.782c0 .662-.237 1.224-.712 1.683a2.332 2.332 0 0 1-1.708.71 2.266 2.266 0 0 1-1.687-.71A2.255 2.255 0 0 1 0 132.462v-24.383c0-.541.163-1.021.488-1.44a2.358 2.358 0 0 1 1.28-.873 2.454 2.454 0 0 1 1.526.082c.501.202.895.534 1.18.994l10.003 16.491 10.003-16.491c.272-.46.658-.792 1.16-.994a2.513 2.513 0 0 1 1.545-.082c.515.15.935.44 1.26.873.326.419.488.899.488 1.44v24.383c0 .662-.23 1.224-.691 1.683a2.332 2.332 0 0 1-1.708.71 2.332 2.332 0 0 1-1.708-.71 2.288 2.288 0 0 1-.691-1.683V116.68l-7.584 12.495v.02l-.061.062c-.04.067-.068.115-.082.142l-.06.08-.265.264c-.027.028-.068.061-.122.102l-.06.06a1.33 1.33 0 0 1-.143.082c0 .013-.007.02-.02.02l-.02.02h-.021a.437.437 0 0 1-.143.082c-.054.027-.074.04-.06.04a.567.567 0 0 0-.123.04 2.202 2.202 0 0 1-.976.183h-.04c.027 0 0-.006-.081-.02a2.431 2.431 0 0 1-.53-.101.742.742 0 0 1-.083-.02l.009.003zm26.894-.186h12.3c.665 0 1.228.236 1.688.71.475.473.712 1.041.712 1.704 0 .662-.237 1.224-.712 1.683-.46.474-1.023.71-1.687.71H38.144a2.266 2.266 0 0 1-1.688-.71 2.255 2.255 0 0 1-.711-1.683V108.14c0-.676.237-1.244.711-1.704a2.266 2.266 0 0 1 1.688-.71h.02l14.7.04c.665 0 1.234.237 1.709.71.46.474.691 1.042.691 1.704 0 .663-.237 1.224-.712 1.684-.46.473-1.023.71-1.687.71h-.02l-12.281-.04v7.363h8.865c.664 0 1.233.23 1.708.69.474.473.711 1.041.711 1.704 0 .662-.237 1.23-.711 1.704-.475.46-1.044.69-1.708.69h-8.865v7.363zm23.931-12.192h6.181c1.139-.04 2.115-.412 2.928-1.115.8-.717 1.2-1.569 1.2-2.556 0-1.028-.42-1.9-1.26-2.617-.841-.717-1.851-1.075-3.03-1.075h-6.019v7.363zm15.087-3.671c0 1.785-.556 3.4-1.667 4.848-1.071 1.433-2.481 2.454-4.23 3.063l4.616 9.331c.285.582.318 1.183.102 1.806a2.281 2.281 0 0 1-1.2 1.379 2.42 2.42 0 0 1-1.057.243c-.99 0-1.701-.446-2.135-1.338l-5.388-10.894h-4.128v9.676c0 .65-.237 1.21-.712 1.684-.46.46-1.023.69-1.687.69-.65 0-1.213-.23-1.688-.69a2.332 2.332 0 0 1-.691-1.684v-24.18c0-.662.23-1.223.691-1.683.475-.473 1.037-.71 1.688-.71h8.418c2.507 0 4.642.825 6.404 2.475 1.776 1.65 2.664 3.644 2.664 5.984zm18.055-3.672c-2.697 0-5.002.954-6.913 2.86-1.925 1.92-2.887 4.226-2.887 6.918 0 2.69.962 4.99 2.887 6.897 1.911 1.92 4.216 2.88 6.913 2.88 2.698 0 5.009-.96 6.934-2.88 1.91-1.907 2.867-4.206 2.867-6.897 0-2.692-.956-4.997-2.867-6.918-1.925-1.906-4.236-2.86-6.934-2.86zm0 24.342c-4.026 0-7.462-1.426-10.308-4.28-2.86-2.84-4.29-6.268-4.29-10.284 0-4.017 1.43-7.452 4.29-10.305 2.846-2.84 6.282-4.26 10.308-4.26s7.47 1.42 10.33 4.26c2.846 2.853 4.27 6.288 4.27 10.305 0 4.016-1.424 7.444-4.27 10.284-2.86 2.854-6.304 4.28-10.33 4.28zM139.659 106.01a2.284 2.284 0 0 1 1.362 1.217c.285.595.319 1.204.102 1.826l-8.52 24.2v.02c-.04.095-.088.196-.142.304a.236.236 0 0 1-.04.061 4.506 4.506 0 0 1-.163.264c.027-.027.013-.007-.041.06l-.244.244c-.068.068-.15.135-.244.203.027-.013.014 0-.04.04a1.64 1.64 0 0 1-.265.143l-.04.02c-.082.04-.163.074-.245.101l-.04.02a1.093 1.093 0 0 1-.265.061c-.108.028-.142.034-.101.02-.136.028-.265.041-.387.041s-.25-.013-.386-.04c.04.013.007.007-.102-.02a1.093 1.093 0 0 1-.264-.061l-.04-.02a1.866 1.866 0 0 1-.245-.102l-.06-.02a2.274 2.274 0 0 1-.245-.142l-.04-.04a.887.887 0 0 1-.244-.204c0 .014-.02 0-.061-.04a2.472 2.472 0 0 1-.183-.203c-.027-.027-.04-.048-.04-.061a4.505 4.505 0 0 1-.164-.264.236.236 0 0 1-.04-.06 5.736 5.736 0 0 1-.143-.305v-.02l-8.519-24.2a2.313 2.313 0 0 1 .102-1.826c.284-.595.738-1 1.362-1.217a2.328 2.328 0 0 1 1.83.101 2.283 2.283 0 0 1 1.22 1.36l6.262 17.79 6.263-17.79a2.283 2.283 0 0 1 1.22-1.36 2.328 2.328 0 0 1 1.83-.101zm5.917 28.663a2.356 2.356 0 0 1-1.302-1.298 2.368 2.368 0 0 1 0-1.826l2.582-6.187v-.02l7.483-18.014c.027-.067.06-.135.102-.202l.04-.102c.04-.054.068-.088.082-.101 0-.014.02-.048.06-.102l.082-.08c0-.014.02-.041.06-.082.055-.054.082-.088.082-.101a.606.606 0 0 1 .082-.061c.054-.054.088-.081.101-.081-.013 0 .014-.02.082-.061a1.23 1.23 0 0 0 .101-.081l.081-.061a.446.446 0 0 1 .122-.061c.028-.014.075-.034.143-.061.068-.04.088-.054.06-.04l.082-.041a.632.632 0 0 0 .142-.04.851.851 0 0 0 .143-.041l.081-.02a.859.859 0 0 0 .142-.02l.102-.021h.468l.122.02.101.02c.028 0 .075.014.143.041.081.014.108.02.081.02.163.04.312.102.447.183-.013-.014.014 0 .082.04.068.041.108.068.122.082l.081.06c.054.041.088.068.102.082.013 0 .04.02.081.06.04.041.075.068.102.082 0 .013.02.04.06.08.055.055.082.089.082.102l.061.081c.054.054.081.088.081.102 0 .013.02.047.061.101.041.054.061.088.061.102.041.067.075.135.102.202l7.482 18.014v.02l2.583 6.187a2.368 2.368 0 0 1 0 1.826 2.356 2.356 0 0 1-1.302 1.298 2.4 2.4 0 0 1-.915.182c-1.07 0-1.81-.493-2.216-1.48l-1.952-4.707H150.66l-1.952 4.707c-.407.987-1.146 1.48-2.217 1.48a2.4 2.4 0 0 1-.914-.182zm7.055-10.772h7.828l-3.924-9.412-3.904 9.412zm40.442 10.954a2.332 2.332 0 0 1-1.708-.71 2.321 2.321 0 0 1-.712-1.704v-9.716h-12.525v9.716c0 .663-.23 1.231-.691 1.704a2.332 2.332 0 0 1-1.708.71 2.332 2.332 0 0 1-1.708-.71 2.321 2.321 0 0 1-.712-1.704v-24.24c0-.663.237-1.231.712-1.704a2.332 2.332 0 0 1 1.708-.71c.664 0 1.233.236 1.708.71.46.473.691 1.041.691 1.704v9.716h12.525v-9.716c0-.663.237-1.231.712-1.704a2.332 2.332 0 0 1 1.708-.71c.664 0 1.233.236 1.707.71.475.473.712 1.041.712 1.704v24.24c0 .663-.237 1.231-.712 1.704a2.332 2.332 0 0 1-1.707.71zm8.926-.182a2.356 2.356 0 0 1-1.302-1.298 2.368 2.368 0 0 1 0-1.826l2.582-6.187v-.02l7.483-18.014c.027-.067.06-.135.102-.202l.04-.102c.04-.054.068-.088.082-.101 0-.014.02-.048.06-.102l.082-.08c0-.014.02-.041.06-.082.055-.054.082-.088.082-.101a.606.606 0 0 1 .082-.061c.054-.054.088-.081.101-.081-.013 0 .014-.02.082-.061a1.23 1.23 0 0 0 .101-.081l.082-.061a.446.446 0 0 1 .122-.061c.027-.014.074-.034.142-.061.068-.04.088-.054.06-.04l.082-.041a.631.631 0 0 0 .143-.04.851.851 0 0 0 .142-.041l.081-.02a.859.859 0 0 0 .142-.02l.102-.021h.468l.122.02.101.02c.028 0 .075.014.143.041.081.014.108.02.081.02.163.04.312.102.447.183-.013-.014.014 0 .082.04.068.041.108.068.122.082l.081.06c.054.041.088.068.102.082.013 0 .04.02.081.06.04.041.075.068.102.082 0 .013.02.04.06.08.055.055.082.089.082.102l.061.081c.054.054.081.088.081.102 0 .013.02.047.061.101.041.054.061.088.061.102.041.067.075.135.102.202l7.482 18.014v.02l2.583 6.187a2.368 2.368 0 0 1 0 1.826 2.356 2.356 0 0 1-1.302 1.298 2.4 2.4 0 0 1-.915.182c-1.07 0-1.81-.493-2.216-1.48l-1.952-4.707h-11.772l-1.952 4.707c-.407.987-1.146 1.48-2.217 1.48a2.4 2.4 0 0 1-.914-.182zm7.055-10.772h7.828l-3.924-9.412-3.904 9.412zm40.116 10.041h-.02v-.02l-14.62-18.764v17.304c0 .662-.236 1.224-.71 1.683-.462.474-1.024.71-1.689.71a2.266 2.266 0 0 1-1.687-.71 2.255 2.255 0 0 1-.712-1.683V108.16c0-.514.15-.974.448-1.38.298-.419.69-.71 1.179-.872a2.26 2.26 0 0 1 1.464-.04c.488.149.888.426 1.2.832l14.619 18.784V108.16c0-.663.23-1.224.69-1.684a2.332 2.332 0 0 1 1.709-.71c.664 0 1.227.237 1.687.71.475.46.712 1.021.712 1.684v24.342a.554.554 0 0 1-.02.122v.101a.554.554 0 0 1-.02.122.282.282 0 0 1-.02.122l-.021.101c-.014.068-.027.108-.04.122a.355.355 0 0 1-.042.101.628.628 0 0 1-.04.122l-.04.102-.062.1-.06.123-.062.06a.917.917 0 0 1-.081.122l-.061.081-.082.081c-.04.055-.067.082-.08.082 0 .013-.028.04-.082.08a.436.436 0 0 1-.102.082c.04-.027.034-.02-.02.02l-.02.02c-.109.082-.21.15-.306.203h-.02a3.39 3.39 0 0 1-.325.142l-.04.02c-.11.041-.225.068-.347.082l-.06.02c-.123.014-.238.02-.346.02-.082 0-.17-.006-.265-.02.028.014.014.014-.04 0a2.677 2.677 0 0 1-.204-.04c.014.013-.013.006-.08-.02a1.41 1.41 0 0 1-.163-.041c-.014 0-.041-.014-.082-.041a.454.454 0 0 1-.162-.06c-.028 0-.055-.014-.082-.041a1.117 1.117 0 0 0-.142-.061.606.606 0 0 1-.081-.061 3.214 3.214 0 0 1-.143-.102 2.217 2.217 0 0 1-.264-.223l-.02-.02v-.02a1.524 1.524 0 0 1-.143-.163z"/>
        </g>
        <text font-family="Nunito-SemiBold, Nunito" font-size="19.5" font-weight="500" letter-spacing="5.2">
            <tspan x="35.285" y="209.8">ADMIN PANE</tspan> <tspan x="208.848" y="209.8">L</tspan>
        </text>
    </g>
</svg>
