<svg xmlns="http://www.w3.org/2000/svg" width="182" height="27" viewBox="0 0 182 27">
    <g fill="#FFF" fill-rule="evenodd">
        <path fill-rule="nonzero" d="M44.14 20.481l1.11-.062v2.501l-1.436-.096-.839 1.77a.847.847 0 0 1-.765.485h-5.76a.847.847 0 0 1-.845-.893.847.847 0 0 1-.018-.219l.005-.085.002-.026a3.552 3.552 0 0 0-.002-.204 3.488 3.488 0 0 0-3.465-3.103 3.488 3.488 0 0 0-3.484 3.532l.001.026.006.086a.847.847 0 0 1-.847.886H17.646a.847.847 0 1 1 0-1.692h9.3a5.165 5.165 0 0 1 1.449-3.186l-15.02.043a.847.847 0 1 1-.004-1.692l25.827-.075-.56-1.64-12.039-.913a.847.847 0 1 1 .128-1.687l15.594 1.181c.37.028.677.292.761.653l.658 2.834a.845.845 0 0 1 .082.214l.318 1.362zm-1.75.098l-.098-.419-6.489.019a5.167 5.167 0 0 1 1.447 2.982h4.406l.221-.468-3.466-.233-.346-1.64 4.325-.241zM21.278 14.12l-2.085-3.924-4.743-.614v4.538h6.828zm-8.522.847V8.619c0-.51.449-.904.956-.839l6.133.793c.272.036.51.2.64.443l2.95 5.554a.846.846 0 0 1-.749 1.243h-9.083a.847.847 0 0 1-.847-.846zm.75-10.275l8.332 1.282c.25.038.469.186.598.402l4.94 8.267a.846.846 0 1 1-1.455.867l-4.735-7.924-8.665-1.333a.847.847 0 0 1-.718-.847l.041-3.297a.07.07 0 0 0-.07-.07H9.063V.345h.304v1.692h-.304V.346h2.713c.978 0 1.77.796 1.764 1.78l-.033 2.566zM9.366.346v1.692h-.895a.847.847 0 1 1 0-1.692h.895z"/>
        <path d="M9.011 20.303h-3.16a.662.662 0 0 1-.655-.669v-.013c0-.37.293-.669.655-.669h4.707c.362 0 .656.3.656.669v.013c0 .37-.294.669-.656.669H9.01zm-6.93 0H.907a.662.662 0 0 1-.656-.669v-.013c0-.37.293-.669.656-.669h2.742c.363 0 .656.3.656.669v.013c0 .37-.293.669-.656.669H2.081zm5.737-4.739H4.044a.662.662 0 0 1-.655-.669v-.013c0-.37.293-.669.655-.669h5.966c.363 0 .656.3.656.669v.013c0 .37-.293.669-.656.669H7.818zm3.921 9.478H5.136a.662.662 0 0 1-.656-.669v-.013c0-.37.294-.669.656-.669h9.362c.363 0 .656.3.656.669v.013c0 .37-.293.669-.656.669H11.74zM34.648 24.141a2.484 2.484 0 0 1-4.97 0c0-1.37 1.112-2.48 2.483-2.48a2.484 2.484 0 0 1 2.487 2.48"/>
        <g fill-rule="nonzero">
            <path d="M58.828 19.794c.007.004-.008 0-.045-.013a1.102 1.102 0 0 1-.073-.03c.007 0 0-.008-.021-.021a.462.462 0 0 1-.083-.042h-.01l-.021-.02a.278.278 0 0 1-.073-.053c0 .007-.01 0-.032-.02a.608.608 0 0 1-.062-.052l-.083-.084a.178.178 0 0 0-.052-.052c-.014-.02-.021-.034-.021-.041a.402.402 0 0 1-.052-.073l-.01-.01c0-.007-.004-.01-.011-.01v-.011c0-.007-.004-.01-.01-.01l-3.873-6.4v8.083c0 .34-.122.627-.365.862a1.194 1.194 0 0 1-.874.364 1.16 1.16 0 0 1-.864-.364 1.155 1.155 0 0 1-.365-.862V8.445c0-.276.084-.522.25-.737.167-.222.385-.37.656-.447a1.24 1.24 0 0 1 1.385.55l5.122 8.448 5.122-8.447c.139-.236.336-.405.593-.51.257-.096.52-.11.791-.04.264.075.48.224.646.446.166.215.25.46.25.738v12.489c0 .34-.118.627-.354.862a1.194 1.194 0 0 1-.875.364c-.34 0-.631-.121-.874-.364a1.172 1.172 0 0 1-.354-.862V12.85l-3.883 6.4v.011l-.032.031-.041.073-.031.041-.136.136a.608.608 0 0 1-.062.051l-.031.032a.681.681 0 0 1-.073.041c0 .007-.004.01-.01.01l-.011.011h-.01a.224.224 0 0 1-.073.042c-.028.013-.039.02-.032.02a.29.29 0 0 0-.062.021c-.16.07-.326.1-.5.094h-.02c.013 0 0-.004-.042-.01a1.244 1.244 0 0 1-.271-.053.38.38 0 0 1-.043-.01l.005.002zm13.77-.096h6.298c.34 0 .628.122.864.364.243.242.365.533.365.873 0 .34-.122.627-.365.862a1.16 1.16 0 0 1-.864.364H71.36a1.16 1.16 0 0 1-.864-.364 1.155 1.155 0 0 1-.365-.862V8.477c0-.346.122-.637.365-.873a1.16 1.16 0 0 1 .864-.364h.01l7.527.021c.34 0 .632.121.875.364.236.242.354.533.354.873 0 .34-.122.627-.365.862a1.16 1.16 0 0 1-.864.364h-.01l-6.288-.021v3.772h4.539c.34 0 .631.117.874.353.243.242.365.533.365.873 0 .34-.122.63-.365.872a1.212 1.212 0 0 1-.874.354h-4.54v3.771zm12.253-6.244h3.165a2.349 2.349 0 0 0 1.499-.572c.41-.367.614-.803.614-1.309 0-.526-.215-.973-.645-1.34-.43-.367-.948-.55-1.551-.55H84.85v3.77zm7.725-1.88c0 .914-.285 1.741-.854 2.482a4.47 4.47 0 0 1-2.165 1.57l2.363 4.779c.146.298.163.606.052.925a1.168 1.168 0 0 1-.614.706 1.239 1.239 0 0 1-.542.125c-.506 0-.87-.229-1.093-.686l-2.759-5.58h-2.113v4.957c0 .332-.121.62-.364.862a1.177 1.177 0 0 1-.864.353 1.2 1.2 0 0 1-.865-.353 1.195 1.195 0 0 1-.354-.862V8.466c0-.339.118-.626.354-.862.243-.242.531-.364.865-.364h4.31c1.284 0 2.377.423 3.279 1.268.91.845 1.364 1.867 1.364 3.065zm9.244-1.881c-1.38 0-2.56.488-3.54 1.465-.985.983-1.478 2.164-1.478 3.543 0 1.378.493 2.556 1.479 3.532.978.984 2.158 1.476 3.54 1.476 1.38 0 2.564-.492 3.55-1.476.978-.976 1.467-2.154 1.467-3.532 0-1.379-.489-2.56-1.468-3.543-.985-.977-2.169-1.465-3.55-1.465zm0 12.468c-2.061 0-3.82-.73-5.278-2.192-1.464-1.455-2.197-3.211-2.197-5.268 0-2.058.733-3.817 2.197-5.279C98 7.968 99.76 7.24 101.82 7.24c2.062 0 3.825.728 5.289 2.182 1.457 1.462 2.186 3.221 2.186 5.279 0 2.057-.729 3.813-2.186 5.268-1.464 1.461-3.227 2.192-5.289 2.192zM123.336 7.386c.32.11.552.319.698.623.145.305.163.617.052.935l-4.362 12.396v.01c-.021.049-.046.1-.073.156a.12.12 0 0 1-.021.031 2.308 2.308 0 0 1-.083.136c.013-.014.007-.004-.021.03l-.125.125a.99.99 0 0 1-.125.104c.014-.007.007 0-.02.021a.84.84 0 0 1-.136.073l-.021.01a.955.955 0 0 1-.125.052l-.02.01a.56.56 0 0 1-.136.032 1.012 1.012 0 0 1-.5 0 .56.56 0 0 1-.135-.031l-.021-.01a.955.955 0 0 1-.125-.053l-.031-.01a1.164 1.164 0 0 1-.125-.073l-.02-.02a.454.454 0 0 1-.126-.105c0 .007-.01 0-.031-.02a1.266 1.266 0 0 1-.094-.104c-.014-.014-.02-.025-.02-.031a2.308 2.308 0 0 1-.084-.136.12.12 0 0 1-.02-.03 2.939 2.939 0 0 1-.074-.157v-.01L113.05 8.944a1.185 1.185 0 0 1 .052-.935 1.17 1.17 0 0 1 .698-.623c.32-.11.631-.094.937.052.305.145.513.377.624.696l3.207 9.112 3.206-9.112c.112-.319.32-.55.625-.696.305-.146.618-.163.937-.052zm3.03 14.681a1.206 1.206 0 0 1-.667-.665 1.213 1.213 0 0 1 0-.935l1.322-3.169v-.01l3.832-9.227a.726.726 0 0 1 .052-.104l.02-.052a.629.629 0 0 1 .042-.052c0-.006.01-.024.031-.051l.042-.042c0-.007.01-.02.031-.042.028-.027.042-.045.042-.052a.31.31 0 0 1 .041-.03c.028-.028.046-.042.053-.042-.007 0 .006-.01.041-.031a.63.63 0 0 0 .052-.042l.042-.031a1.102 1.102 0 0 1 .135-.062c.035-.021.045-.028.031-.021l.042-.021a.323.323 0 0 0 .073-.02.436.436 0 0 0 .073-.022l.041-.01a.44.44 0 0 0 .073-.01l.052-.01h.24l.062.01.052.01a.24.24 0 0 1 .073.02.838.838 0 0 1 .27.104c-.006-.006.008 0 .043.021.034.021.055.035.062.042l.042.031a.63.63 0 0 1 .052.042c.007 0 .02.01.041.03.021.022.039.036.052.042 0 .007.01.021.032.042.027.028.041.045.041.052l.031.042c.028.027.042.045.042.051 0 .007.01.025.031.052.021.028.032.045.032.052.02.035.038.07.052.104l3.83 9.227v.01l1.323 3.17c.125.31.125.623 0 .934a1.229 1.229 0 0 1-1.135.758c-.548 0-.926-.252-1.135-.758l-.999-2.41h-6.028l-1 2.41c-.207.506-.586.759-1.134.759-.16 0-.316-.031-.468-.094zm3.612-5.517h4.008l-2.01-4.821-1.998 4.821zm20.707 5.61c-.34 0-.632-.12-.875-.363a1.19 1.19 0 0 1-.364-.873v-4.977h-6.413v4.977c0 .34-.118.63-.354.873a1.194 1.194 0 0 1-.874.364c-.34 0-.632-.121-.875-.364a1.19 1.19 0 0 1-.364-.873V8.508c0-.34.121-.63.364-.873.243-.242.534-.363.875-.363.34 0 .631.12.874.363.236.243.354.534.354.873v4.977h6.413V8.508c0-.34.121-.63.364-.873.243-.242.535-.363.875-.363.34 0 .631.12.874.363s.365.534.365.873v12.416c0 .34-.122.63-.365.873a1.194 1.194 0 0 1-.874.364zm4.57-.093a1.206 1.206 0 0 1-.666-.665 1.213 1.213 0 0 1 0-.935l1.322-3.169v-.01l3.831-9.227a.726.726 0 0 1 .052-.104l.021-.052a.629.629 0 0 1 .042-.052c0-.006.01-.024.03-.051l.042-.042c0-.007.01-.02.032-.042.027-.027.041-.045.041-.052a.31.31 0 0 1 .042-.03c.028-.028.045-.042.052-.042-.007 0 .007-.01.042-.031a.63.63 0 0 0 .052-.042l.041-.031a1.102 1.102 0 0 1 .135-.062c.035-.021.046-.028.032-.021l.042-.021a.323.323 0 0 0 .072-.02.436.436 0 0 0 .073-.022l.042-.01a.44.44 0 0 0 .073-.01l.052-.01h.24l.062.01.052.01a.24.24 0 0 1 .073.02c.041.008.055.011.041.011.084.02.16.052.23.094a.443.443 0 0 1 .104.062l.041.031a.63.63 0 0 1 .052.042c.007 0 .021.01.042.03.02.022.038.036.052.042 0 .007.01.021.031.042.028.028.042.045.042.052l.031.042c.028.027.042.045.042.051 0 .007.01.025.03.052.022.028.032.045.032.052.021.035.038.07.052.104l3.831 9.227v.01l1.322 3.17c.125.31.125.623 0 .934a1.229 1.229 0 0 1-1.135.758c-.548 0-.926-.252-1.134-.758l-1-2.41h-6.027l-1 2.41c-.208.506-.586.759-1.134.759-.16 0-.316-.031-.469-.094zm3.613-5.517h4.008l-2.01-4.821-1.998 4.821zm20.54 5.143h-.01v-.01l-7.486-9.611v8.863c0 .34-.121.627-.364.862a1.16 1.16 0 0 1-.864.364 1.16 1.16 0 0 1-.864-.364 1.155 1.155 0 0 1-.365-.862V8.487c0-.263.077-.498.23-.706a1.18 1.18 0 0 1 .603-.447c.243-.09.493-.097.75-.02.25.075.454.217.614.425l7.485 9.622V8.487c0-.34.118-.627.354-.862.243-.243.535-.364.875-.364.34 0 .628.121.864.364.243.235.364.523.364.862v12.469a.284.284 0 0 1-.01.062v.052a.284.284 0 0 1-.01.062.144.144 0 0 1-.011.063l-.01.052c-.008.034-.014.055-.021.062a.182.182 0 0 1-.021.052.322.322 0 0 1-.021.062l-.02.052-.032.052-.031.062-.032.032a.47.47 0 0 1-.041.062l-.031.041-.042.042c-.02.028-.035.042-.042.042 0 .007-.014.02-.041.041a.223.223 0 0 1-.052.042c.02-.014.017-.01-.01.01l-.011.01a1.522 1.522 0 0 1-.156.104h-.01a1.736 1.736 0 0 1-.167.073l-.021.01a.734.734 0 0 1-.177.042l-.031.01a1.61 1.61 0 0 1-.177.01.963.963 0 0 1-.136-.01c.014.007.007.007-.02 0a1.37 1.37 0 0 1-.105-.02c.007.007-.007.003-.041-.01a.721.721 0 0 1-.084-.021c-.007 0-.02-.007-.041-.021a.233.233 0 0 1-.084-.031c-.013 0-.027-.007-.041-.021a.572.572 0 0 0-.073-.031.31.31 0 0 1-.042-.032 1.646 1.646 0 0 1-.208-.166l-.01-.01v-.01a.78.78 0 0 1-.073-.084z"/>
        </g>
    </g>
</svg>
