<svg xmlns="http://www.w3.org/2000/svg" width="48" height="48" viewBox="0 0 48 48">
    <g fill="none" fill-rule="evenodd">
        <circle cx="24" cy="24" r="24" fill="#136A8A"/>
        <g fill="#FFF" stroke="#FFF" stroke-width=".6">
            <path d="M28.384 25.098c-.018.126.092.252.222.252.129.018.258-.09.258-.216 0-.054.019-.126.019-.198v-.198a4.737 4.737 0 0 0-1.44-3.387c-.868-.883-2.105-1.405-3.453-1.405-.147 0-.277 0-.424.018l-.425.054a.242.242 0 0 0-.203.27c.018.126.148.217.277.198l.388-.054c.129-.018.258-.018.387-.018 1.219 0 2.326.487 3.12 1.261a4.25 4.25 0 0 1 1.293 3.045v.18c0 .072 0 .126-.019.198z"/>
            <path fill-rule="nonzero" d="M34.606 29.817a1.035 1.035 0 0 0-.443-.45L30.47 27.44c-1.2-.63-1.421-.397-2.326.594-.148.162-.332.36-.535.558-.056.054-.111.127-.185.199-.295.342-.738.846-1.144.738-.591-.144-1.422-.612-2.253-1.153-1.07-.72-2.123-1.585-2.603-2.09a18.789 18.789 0 0 1-1.588-2.017c-.313-.468-.553-.882-.572-1.099-.018-.306.296-.594.646-.936.665-.63 1.44-1.351.905-2.72 0-.018 0-.018-.019-.036l-1.606-3.549c-.332-.702-.757-1.08-1.255-1.207-.443-.108-.923-.018-1.403.234-.443.235-.905.613-1.33 1.063-1.218 1.315-2.178 3.35-1.975 4.666.166 1.116.628 2.323 1.33 3.566 1.495 2.666 4.08 5.458 6.941 7.494 2.862 2.053 6.055 3.35 8.75 2.972a5.852 5.852 0 0 0 1.995-.63c.683-.36 1.458-1.135 1.957-1.964.24-.396.424-.81.516-1.189.093-.414.074-.792-.11-1.117zm-.351 1.027c-.074.324-.24.685-.462 1.045-.461.756-1.181 1.459-1.772 1.783a5.404 5.404 0 0 1-1.828.577c-2.566.342-5.63-.901-8.418-2.883-2.806-1.999-5.335-4.719-6.794-7.33-.665-1.19-1.126-2.36-1.274-3.405-.166-1.19.72-3.045 1.865-4.288.388-.414.794-.756 1.181-.954.37-.198.739-.27 1.053-.198.35.09.683.378.923.936l1.624 3.567c.407 1.08-.221 1.693-.793 2.215-.425.415-.813.775-.794 1.297.018.307.295.811.646 1.351.572.847 1.384 1.784 1.643 2.072.498.54 1.57 1.423 2.677 2.18.868.576 1.772 1.062 2.418 1.224.702.163 1.274-.468 1.643-.9.056-.072.111-.144.167-.18.221-.216.387-.415.535-.577.701-.756.868-.936 1.717-.504l3.674 1.927c.129.072.203.162.277.27.147.199.147.469.092.775z"/>
            <path d="M22.236 15.083c.296-.055.573-.09.868-.109.296-.018.59-.036.868-.036 2.77 0 5.28 1.1 7.108 2.865a9.642 9.642 0 0 1 2.935 6.935c0 .288-.019.558-.037.846a.29.29 0 0 0 .258.252c.13.018.259-.09.259-.216a10.14 10.14 0 0 0-3.046-8.16c-1.902-1.873-4.542-3.026-7.459-3.026-.314 0-.609.018-.923.036a7.28 7.28 0 0 0-.904.126c-.13.018-.222.144-.203.288.018.126.147.217.276.199z"/>
            <path d="M31.412 25.602c.13.018.258-.09.258-.216.019-.216.037-.432.037-.648 0-2.072-.867-3.963-2.252-5.332a7.816 7.816 0 0 0-5.465-2.216 8.403 8.403 0 0 0-1.33.126.242.242 0 0 0-.202.27c.018.126.148.217.277.199.203-.037.406-.055.628-.073.203-.018.424-.018.627-.018 1.994 0 3.803.793 5.114 2.072 1.31 1.279 2.123 3.044 2.123 4.99 0 .198 0 .396-.018.612-.037.108.074.216.203.234z"/>
        </g>
    </g>
</svg>
