<svg xmlns="http://www.w3.org/2000/svg" xmlns:xlink="http://www.w3.org/1999/xlink" width="40" height="40" viewBox="0 0 40 40">
    <defs>
        <path id="a" d="M12 14v-1a2 2 0 0 1 2-2h12a2 2 0 0 1 2 2v1a1 1 0 0 1-2 0 1 1 0 0 0-1-1H15a1 1 0 0 0-1 1 1 1 0 0 1-2 0zm10 9a2 2 0 1 1-3.999.001A2 2 0 0 1 22 23zm6-2.343L26.343 19c1.629 0 1.657.384 1.657 1.657zM26.343 27L28 25.343C28 26.97 27.62 27 26.343 27zm-9.858 0l-4-4 4-4h7.03l4 4-4 4h-7.03zM12 25.343L13.657 27C12.03 27 12 26.62 12 25.343zM13.657 19L12 20.657c0-1.629.384-1.657 1.657-1.657zM28 17H12a2 2 0 0 0-2 2v8a2 2 0 0 0 2 2h16a2 2 0 0 0 2-2v-8a2 2 0 0 0-2-2z"/>
    </defs>
    <g fill="none" fill-rule="evenodd">
        <circle cx="20" cy="20" r="20" fill="#FFF"/>
        <mask id="b" fill="#fff">
            <use xlink:href="#a"/>
        </mask>
        <use fill="#98A6BA" xlink:href="#a"/>
    </g>
</svg>
