<svg xmlns="http://www.w3.org/2000/svg" width="14" height="14" viewBox="0 0 14 14">
    <path fill="#FFF" fill-rule="evenodd" d="M12.662 6.306c.288 0 .531.094.729.284a.947.947 0 0 1 .297.715.947.947 0 0 1-.297.715 1.016 1.016 0 0 1-.729.284H8.099v4.563c0 .288-.094.531-.284.729a.947.947 0 0 1-.715.297.947.947 0 0 1-.715-.297 1.016 1.016 0 0 1-.284-.729V8.304H1.538a.991.991 0 0 1-.729-.297.96.96 0 0 1-.297-.702c0-.288.099-.526.297-.715.198-.19.441-.284.729-.284h4.563V1.743c0-.288.094-.531.284-.729A.947.947 0 0 1 7.1.717c.288 0 .526.099.716.297.189.198.283.441.283.729v4.563h4.563z"/>
</svg>
