<svg xmlns="http://www.w3.org/2000/svg" xmlns:xlink="http://www.w3.org/1999/xlink" width="40" height="40" viewBox="0 0 40 40">
    <defs>
        <path id="a" d="M14.978 16.02a1.044 1.044 0 1 1 2.087 0 1.044 1.044 0 0 1-2.087 0zm7.297 12.156l-9.035-9.035a.521.521 0 0 1-.153-.37V14.13c0-.577.467-1.045 1.044-1.045h4.64c.14 0 .272.056.37.154l9.035 9.035a1.044 1.044 0 0 1 0 1.476l-4.426 4.426a1.044 1.044 0 0 1-1.475 0zm4.659-10.094c-.173-.175-6.95-6.95-6.776-6.777a1.046 1.046 0 0 0-.737-.305h-6.334A2.087 2.087 0 0 0 11 13.085v6.335c0 .277.11.542.306.738l10.231 10.23a2.086 2.086 0 0 0 2.95 0l5.902-5.9a2.086 2.086 0 0 0 0-2.951l-3.455-3.455z"/>
    </defs>
    <g fill="none" fill-rule="evenodd">
        <circle cx="20" cy="20" r="20" fill="#136A8A"/>
        <use fill="#FFF" xlink:href="#a"/>
    </g>
</svg>
