<svg xmlns="http://www.w3.org/2000/svg" xmlns:xlink="http://www.w3.org/1999/xlink" width="40" height="40" viewBox="0 0 40 40">
    <defs>
        <path id="a" d="M26 25a1 1 0 0 1-1 1H15a1 1 0 0 1 0-2h10a1 1 0 0 1 1 1zm-11-5h10a1 1 0 0 1 0 2H15a1 1 0 0 1 0-2zm13 7a1 1 0 0 1-1 1H13a1 1 0 0 1-1-1V13a1 1 0 0 1 1-1h9v4a2 2 0 0 0 2 2h4v9zm1.707-11.293l-5.414-5.414a1 1 0 0 0-.707-.293H12a2 2 0 0 0-2 2v16a2 2 0 0 0 2 2h16a2 2 0 0 0 2-2V16.414a1 1 0 0 0-.293-.707z"/>
    </defs>
    <g fill="none" fill-rule="evenodd">
        <circle cx="20" cy="20" r="20" fill="#136A8A"/>
        <use fill="#FFF" xlink:href="#a"/>
    </g>
</svg>
