<svg xmlns="http://www.w3.org/2000/svg" width="40" height="40" viewBox="0 0 40 40">
    <g fill="none" fill-rule="evenodd">
        <circle cx="20" cy="20" r="20" fill="#FFF"/>
        <path fill="#98A6BA" d="M14 12v14h14v2H13a1 1 0 0 1-1-1V12h2zm3.5 12h-1a.5.5 0 0 1-.5-.5v-5a.5.5 0 0 1 .5-.5h1a.5.5 0 0 1 .5.5v5a.5.5 0 0 1-.5.5zm3 0h-1a.5.5 0 0 1-.5-.5v-9a.5.5 0 0 1 .5-.5h1a.5.5 0 0 1 .5.5v9a.5.5 0 0 1-.5.5zm3 0h-1a.5.5 0 0 1-.5-.5v-3a.5.5 0 0 1 .5-.5h1a.5.5 0 0 1 .5.5v3a.5.5 0 0 1-.5.5zm3 0h-1a.5.5 0 0 1-.5-.5v-7a.5.5 0 0 1 .5-.5h1a.5.5 0 0 1 .5.5v7a.5.5 0 0 1-.5.5z"/>
    </g>
</svg>
