<svg xmlns="http://www.w3.org/2000/svg" width="24" height="25" viewBox="0 0 24 25">
    <defs>
        <linearGradient id="a" x1="91.541%" x2="9.671%" y1="96.7%" y2="3.701%">
            <stop offset="0%" stop-color="#136A8A"/>
            <stop offset="100%" stop-color="#267871"/>
        </linearGradient>
    </defs>
    <path fill="url(#a)" fill-rule="nonzero" d="M11.7.8C5.239.8 0 6.039 0 12.5c0 6.461 5.239 11.7 11.7 11.7 6.461 0 11.7-5.239 11.7-11.7C23.4 6.039 18.161.8 11.7.8zm0 2.925c3.808 0 7.024 2.453 8.238 5.85H3.462c1.214-3.397 4.43-5.85 8.238-5.85zm0 10.237a1.462 1.462 0 1 1 0-2.924 1.462 1.462 0 0 1 0 2.924zM2.925 12.5c3.996 0 7.233 3.85 7.3 8.627-4.135-.709-7.3-4.294-7.3-8.627zm10.25 8.627c.067-4.776 3.304-8.627 7.3-8.627 0 4.333-3.165 7.918-7.3 8.627z"/>
</svg>
