<svg xmlns="http://www.w3.org/2000/svg" width="31" height="22" viewBox="0 0 31 22">
    <defs>
        <linearGradient id="a" x1="73.202%" x2="19.625%" y1="75.689%" y2="70.887%">
            <stop offset="0%" stop-color="#136A8A"/>
            <stop offset="100%" stop-color="#28958C"/>
        </linearGradient>
        <linearGradient id="b" x1="72.169%" x2="32.29%" y1="92.756%" y2="9.305%">
            <stop offset="0%" stop-color="#136A8A"/>
            <stop offset="100%" stop-color="#28958C"/>
        </linearGradient>
    </defs>
    <g fill="none" fill-rule="nonzero">
        <path fill="url(#a)" d="M22.755 12.599c-2.592 0-4.691-2.137-4.691-4.777s2.099-4.776 4.691-4.776c2.592 0 4.691 2.137 4.691 4.776 0 2.64-2.099 4.777-4.691 4.777zm3.002.152l.074.017c2.893.818 4.509 3.073 4.509 6.208 0 1.222-1.618 1.324-7.584 1.329-5.987.004-7.586-.093-7.586-1.308 0-3.153 1.613-5.41 4.583-6.246l.442-.083.279.187.124.084c.644.473 1.407.73 2.157.73s1.513-.257 2.186-.75l.374-.25.442.082z" transform="translate(.2)"/>
        <path fill="url(#b)" d="M9.654 11.801c-3.3 0-5.971-2.64-5.971-5.9C3.683 2.64 6.355 0 9.653 0c3.3 0 5.972 2.64 5.972 5.9 0 3.261-2.672 5.901-5.971 5.901zm3.821.187l.094.022c3.682 1.01 5.739 3.796 5.739 7.668 0 1.51-2.06 1.636-9.653 1.642C2.035 21.326 0 21.206 0 19.704c0-3.894 2.053-6.682 5.832-7.716l.563-.101.355.23.16.105c.818.583 1.79.902 2.744.902.955 0 1.925-.319 2.783-.928l.475-.31.563.102z" transform="translate(.2)"/>
    </g>
</svg>
